ISO-10303-21;
HEADER;
/* Generated by software containing ST-Developer
 * from STEP Tools, Inc. (www.steptools.com) 
 */

FILE_DESCRIPTION(
/* description */ (''),
/* implementation_level */ '2;1');

FILE_NAME(
/* name */ '01-petg-body.step',
/* time_stamp */ '2026-05-26T21:11:48-05:00',
/* author */ (''),
/* organization */ (''),
/* preprocessor_version */ 'ST-DEVELOPER v20.1',
/* originating_system */ 'Autodesk Translation Framework v15.8.0.0',
/* authorisation */ '');

FILE_SCHEMA (('AUTOMOTIVE_DESIGN { 1 0 10303 214 3 1 1 }'));
ENDSEC;

DATA;
#10=MECHANICAL_DESIGN_GEOMETRIC_PRESENTATION_REPRESENTATION('',(#13),#1936);
#11=SHAPE_REPRESENTATION_RELATIONSHIP('SRR','None',#1943,#12);
#12=ADVANCED_BREP_SHAPE_REPRESENTATION('',(#14),#1935);
#13=STYLED_ITEM('',(#1952),#14);
#14=MANIFOLD_SOLID_BREP('PETG_Solid',#1120);
#15=FACE_BOUND('',#235,.T.);
#16=FACE_BOUND('',#238,.T.);
#17=FACE_BOUND('',#241,.T.);
#18=FACE_BOUND('',#244,.T.);
#19=FACE_BOUND('',#247,.T.);
#20=FACE_BOUND('',#250,.T.);
#21=FACE_BOUND('',#259,.T.);
#22=FACE_BOUND('',#260,.T.);
#23=FACE_BOUND('',#261,.T.);
#24=FACE_BOUND('',#262,.T.);
#25=FACE_BOUND('',#264,.T.);
#26=FACE_BOUND('',#266,.T.);
#27=FACE_BOUND('',#267,.T.);
#28=FACE_BOUND('',#268,.T.);
#29=FACE_BOUND('',#269,.T.);
#30=FACE_BOUND('',#270,.T.);
#31=FACE_BOUND('',#271,.T.);
#32=FACE_BOUND('',#274,.T.);
#33=FACE_BOUND('',#275,.T.);
#34=FACE_BOUND('',#276,.T.);
#35=FACE_BOUND('',#278,.T.);
#36=FACE_BOUND('',#279,.T.);
#37=FACE_BOUND('',#280,.T.);
#38=FACE_BOUND('',#281,.T.);
#39=FACE_BOUND('',#283,.T.);
#40=FACE_BOUND('',#285,.T.);
#41=FACE_BOUND('',#286,.T.);
#42=FACE_BOUND('',#287,.T.);
#43=FACE_BOUND('',#288,.T.);
#44=FACE_BOUND('',#291,.T.);
#45=FACE_BOUND('',#293,.T.);
#46=FACE_BOUND('',#294,.T.);
#47=FACE_BOUND('',#295,.T.);
#48=CIRCLE('',#1139,5.4);
#49=CIRCLE('',#1140,5.4);
#50=CIRCLE('',#1142,5.4);
#51=CIRCLE('',#1143,5.4);
#52=CIRCLE('',#1149,2.10000000000001);
#53=CIRCLE('',#1150,4.94999999999999);
#54=CIRCLE('',#1151,3.00000000000001);
#55=CIRCLE('',#1152,4.94999999999999);
#56=CIRCLE('',#1154,4.94999999999999);
#57=CIRCLE('',#1155,4.94999999999999);
#58=CIRCLE('',#1156,4.94999999999999);
#59=CIRCLE('',#1157,4.94999999999999);
#60=CIRCLE('',#1159,2.1);
#61=CIRCLE('',#1160,4.95);
#62=CIRCLE('',#1161,3.);
#63=CIRCLE('',#1162,4.95);
#64=CIRCLE('',#1164,4.95);
#65=CIRCLE('',#1165,4.95);
#66=CIRCLE('',#1166,4.95);
#67=CIRCLE('',#1167,4.95);
#68=CIRCLE('',#1169,2.1);
#69=CIRCLE('',#1170,4.95);
#70=CIRCLE('',#1171,3.);
#71=CIRCLE('',#1172,4.95);
#72=CIRCLE('',#1174,4.95);
#73=CIRCLE('',#1175,4.95);
#74=CIRCLE('',#1176,4.95);
#75=CIRCLE('',#1177,4.95);
#76=CIRCLE('',#1179,2.10000000000001);
#77=CIRCLE('',#1180,4.94999999999999);
#78=CIRCLE('',#1181,3.00000000000001);
#79=CIRCLE('',#1182,4.94999999999999);
#80=CIRCLE('',#1184,4.94999999999999);
#81=CIRCLE('',#1185,4.94999999999999);
#82=CIRCLE('',#1186,4.94999999999999);
#83=CIRCLE('',#1187,4.94999999999999);
#84=CIRCLE('',#1189,2.10000000000001);
#85=CIRCLE('',#1190,2.10000000000001);
#86=CIRCLE('',#1193,2.1);
#87=CIRCLE('',#1194,2.1);
#88=CIRCLE('',#1195,2.1);
#89=CIRCLE('',#1198,2.1);
#90=CIRCLE('',#1199,2.1);
#91=CIRCLE('',#1202,2.1);
#92=CIRCLE('',#1203,2.1);
#93=CIRCLE('',#1204,2.1);
#94=CIRCLE('',#1207,2.10000000000001);
#95=CIRCLE('',#1208,2.10000000000001);
#96=CIRCLE('',#1209,2.10000000000001);
#97=CIRCLE('',#1212,2.10000000000001);
#98=CIRCLE('',#1213,2.10000000000001);
#99=CIRCLE('',#1214,2.10000000000001);
#100=CIRCLE('',#1217,3.00000000000001);
#101=CIRCLE('',#1218,3.00000000000001);
#102=CIRCLE('',#1219,3.00000000000001);
#103=CIRCLE('',#1222,3.00000000000001);
#104=CIRCLE('',#1223,3.00000000000001);
#105=CIRCLE('',#1224,3.00000000000001);
#106=CIRCLE('',#1227,3.);
#107=CIRCLE('',#1228,3.);
#108=CIRCLE('',#1229,3.);
#109=CIRCLE('',#1232,3.);
#110=CIRCLE('',#1233,3.);
#111=CIRCLE('',#1236,3.);
#112=CIRCLE('',#1237,3.);
#113=CIRCLE('',#1238,3.);
#114=CIRCLE('',#1241,3.00000000000001);
#115=CIRCLE('',#1242,3.00000000000001);
#116=CIRCLE('',#1249,3.64999999999999);
#117=CIRCLE('',#1250,3.64999999999999);
#118=CIRCLE('',#1252,5.4);
#119=CIRCLE('',#1253,5.4);
#120=CIRCLE('',#1255,5.4);
#121=CIRCLE('',#1256,5.4);
#122=CYLINDRICAL_SURFACE('',#1138,5.4);
#123=CYLINDRICAL_SURFACE('',#1141,5.4);
#124=CYLINDRICAL_SURFACE('',#1153,4.94999999999999);
#125=CYLINDRICAL_SURFACE('',#1163,4.95);
#126=CYLINDRICAL_SURFACE('',#1173,4.95);
#127=CYLINDRICAL_SURFACE('',#1183,4.94999999999999);
#128=CYLINDRICAL_SURFACE('',#1188,2.10000000000001);
#129=CYLINDRICAL_SURFACE('',#1192,2.1);
#130=CYLINDRICAL_SURFACE('',#1197,2.1);
#131=CYLINDRICAL_SURFACE('',#1201,2.1);
#132=CYLINDRICAL_SURFACE('',#1206,2.10000000000001);
#133=CYLINDRICAL_SURFACE('',#1211,2.10000000000001);
#134=CYLINDRICAL_SURFACE('',#1216,3.00000000000001);
#135=CYLINDRICAL_SURFACE('',#1221,3.00000000000001);
#136=CYLINDRICAL_SURFACE('',#1226,3.);
#137=CYLINDRICAL_SURFACE('',#1231,3.);
#138=CYLINDRICAL_SURFACE('',#1235,3.);
#139=CYLINDRICAL_SURFACE('',#1240,3.00000000000001);
#140=CYLINDRICAL_SURFACE('',#1248,3.64999999999999);
#141=CYLINDRICAL_SURFACE('',#1251,5.4);
#142=CYLINDRICAL_SURFACE('',#1254,5.4);
#143=FACE_OUTER_BOUND('',#203,.T.);
#144=FACE_OUTER_BOUND('',#204,.T.);
#145=FACE_OUTER_BOUND('',#205,.T.);
#146=FACE_OUTER_BOUND('',#206,.T.);
#147=FACE_OUTER_BOUND('',#207,.T.);
#148=FACE_OUTER_BOUND('',#208,.T.);
#149=FACE_OUTER_BOUND('',#209,.T.);
#150=FACE_OUTER_BOUND('',#210,.T.);
#151=FACE_OUTER_BOUND('',#211,.T.);
#152=FACE_OUTER_BOUND('',#212,.T.);
#153=FACE_OUTER_BOUND('',#213,.T.);
#154=FACE_OUTER_BOUND('',#214,.T.);
#155=FACE_OUTER_BOUND('',#215,.T.);
#156=FACE_OUTER_BOUND('',#216,.T.);
#157=FACE_OUTER_BOUND('',#217,.T.);
#158=FACE_OUTER_BOUND('',#218,.T.);
#159=FACE_OUTER_BOUND('',#219,.T.);
#160=FACE_OUTER_BOUND('',#220,.T.);
#161=FACE_OUTER_BOUND('',#221,.T.);
#162=FACE_OUTER_BOUND('',#222,.T.);
#163=FACE_OUTER_BOUND('',#223,.T.);
#164=FACE_OUTER_BOUND('',#224,.T.);
#165=FACE_OUTER_BOUND('',#225,.T.);
#166=FACE_OUTER_BOUND('',#226,.T.);
#167=FACE_OUTER_BOUND('',#227,.T.);
#168=FACE_OUTER_BOUND('',#228,.T.);
#169=FACE_OUTER_BOUND('',#229,.T.);
#170=FACE_OUTER_BOUND('',#230,.T.);
#171=FACE_OUTER_BOUND('',#231,.T.);
#172=FACE_OUTER_BOUND('',#232,.T.);
#173=FACE_OUTER_BOUND('',#233,.T.);
#174=FACE_OUTER_BOUND('',#234,.T.);
#175=FACE_OUTER_BOUND('',#236,.T.);
#176=FACE_OUTER_BOUND('',#237,.T.);
#177=FACE_OUTER_BOUND('',#239,.T.);
#178=FACE_OUTER_BOUND('',#240,.T.);
#179=FACE_OUTER_BOUND('',#242,.T.);
#180=FACE_OUTER_BOUND('',#243,.T.);
#181=FACE_OUTER_BOUND('',#245,.T.);
#182=FACE_OUTER_BOUND('',#246,.T.);
#183=FACE_OUTER_BOUND('',#248,.T.);
#184=FACE_OUTER_BOUND('',#249,.T.);
#185=FACE_OUTER_BOUND('',#251,.T.);
#186=FACE_OUTER_BOUND('',#252,.T.);
#187=FACE_OUTER_BOUND('',#253,.T.);
#188=FACE_OUTER_BOUND('',#254,.T.);
#189=FACE_OUTER_BOUND('',#255,.T.);
#190=FACE_OUTER_BOUND('',#256,.T.);
#191=FACE_OUTER_BOUND('',#257,.T.);
#192=FACE_OUTER_BOUND('',#258,.T.);
#193=FACE_OUTER_BOUND('',#263,.T.);
#194=FACE_OUTER_BOUND('',#265,.T.);
#195=FACE_OUTER_BOUND('',#272,.T.);
#196=FACE_OUTER_BOUND('',#273,.T.);
#197=FACE_OUTER_BOUND('',#277,.T.);
#198=FACE_OUTER_BOUND('',#282,.T.);
#199=FACE_OUTER_BOUND('',#284,.T.);
#200=FACE_OUTER_BOUND('',#289,.T.);
#201=FACE_OUTER_BOUND('',#290,.T.);
#202=FACE_OUTER_BOUND('',#292,.T.);
#203=EDGE_LOOP('',(#711,#712,#713,#714));
#204=EDGE_LOOP('',(#715,#716,#717,#718));
#205=EDGE_LOOP('',(#719,#720,#721,#722));
#206=EDGE_LOOP('',(#723,#724,#725,#726));
#207=EDGE_LOOP('',(#727,#728,#729,#730));
#208=EDGE_LOOP('',(#731,#732,#733,#734));
#209=EDGE_LOOP('',(#735,#736,#737,#738));
#210=EDGE_LOOP('',(#739,#740,#741,#742));
#211=EDGE_LOOP('',(#743,#744,#745,#746));
#212=EDGE_LOOP('',(#747,#748,#749,#750));
#213=EDGE_LOOP('',(#751,#752,#753,#754));
#214=EDGE_LOOP('',(#755,#756,#757,#758,#759,#760,#761,#762));
#215=EDGE_LOOP('',(#763,#764,#765,#766));
#216=EDGE_LOOP('',(#767,#768,#769,#770,#771,#772,#773,#774));
#217=EDGE_LOOP('',(#775,#776,#777,#778));
#218=EDGE_LOOP('',(#779,#780,#781,#782,#783,#784,#785,#786));
#219=EDGE_LOOP('',(#787,#788,#789,#790));
#220=EDGE_LOOP('',(#791,#792,#793,#794,#795,#796,#797,#798));
#221=EDGE_LOOP('',(#799,#800,#801,#802));
#222=EDGE_LOOP('',(#803));
#223=EDGE_LOOP('',(#804,#805,#806,#807,#808,#809));
#224=EDGE_LOOP('',(#810,#811,#812));
#225=EDGE_LOOP('',(#813,#814,#815,#816));
#226=EDGE_LOOP('',(#817));
#227=EDGE_LOOP('',(#818,#819,#820,#821,#822,#823));
#228=EDGE_LOOP('',(#824,#825,#826));
#229=EDGE_LOOP('',(#827,#828,#829,#830,#831,#832));
#230=EDGE_LOOP('',(#833,#834,#835));
#231=EDGE_LOOP('',(#836,#837,#838,#839,#840,#841));
#232=EDGE_LOOP('',(#842,#843,#844));
#233=EDGE_LOOP('',(#845,#846,#847,#848,#849,#850));
#234=EDGE_LOOP('',(#851));
#235=EDGE_LOOP('',(#852));
#236=EDGE_LOOP('',(#853,#854,#855,#856,#857,#858));
#237=EDGE_LOOP('',(#859));
#238=EDGE_LOOP('',(#860));
#239=EDGE_LOOP('',(#861,#862,#863,#864,#865,#866));
#240=EDGE_LOOP('',(#867));
#241=EDGE_LOOP('',(#868));
#242=EDGE_LOOP('',(#869,#870,#871,#872));
#243=EDGE_LOOP('',(#873));
#244=EDGE_LOOP('',(#874));
#245=EDGE_LOOP('',(#875,#876,#877,#878,#879,#880));
#246=EDGE_LOOP('',(#881));
#247=EDGE_LOOP('',(#882));
#248=EDGE_LOOP('',(#883,#884,#885,#886));
#249=EDGE_LOOP('',(#887));
#250=EDGE_LOOP('',(#888));
#251=EDGE_LOOP('',(#889,#890,#891,#892));
#252=EDGE_LOOP('',(#893,#894,#895,#896));
#253=EDGE_LOOP('',(#897,#898,#899,#900));
#254=EDGE_LOOP('',(#901,#902,#903,#904));
#255=EDGE_LOOP('',(#905,#906,#907,#908));
#256=EDGE_LOOP('',(#909,#910,#911,#912));
#257=EDGE_LOOP('',(#913,#914,#915,#916));
#258=EDGE_LOOP('',(#917,#918,#919,#920));
#259=EDGE_LOOP('',(#921,#922,#923,#924));
#260=EDGE_LOOP('',(#925));
#261=EDGE_LOOP('',(#926));
#262=EDGE_LOOP('',(#927,#928,#929,#930));
#263=EDGE_LOOP('',(#931,#932,#933,#934));
#264=EDGE_LOOP('',(#935,#936,#937,#938));
#265=EDGE_LOOP('',(#939,#940,#941,#942));
#266=EDGE_LOOP('',(#943));
#267=EDGE_LOOP('',(#944,#945,#946,#947));
#268=EDGE_LOOP('',(#948));
#269=EDGE_LOOP('',(#949,#950,#951,#952));
#270=EDGE_LOOP('',(#953,#954,#955,#956));
#271=EDGE_LOOP('',(#957,#958,#959,#960));
#272=EDGE_LOOP('',(#961,#962,#963,#964));
#273=EDGE_LOOP('',(#965,#966,#967,#968));
#274=EDGE_LOOP('',(#969));
#275=EDGE_LOOP('',(#970));
#276=EDGE_LOOP('',(#971));
#277=EDGE_LOOP('',(#972,#973,#974,#975));
#278=EDGE_LOOP('',(#976,#977,#978,#979));
#279=EDGE_LOOP('',(#980));
#280=EDGE_LOOP('',(#981));
#281=EDGE_LOOP('',(#982,#983,#984,#985));
#282=EDGE_LOOP('',(#986,#987,#988,#989));
#283=EDGE_LOOP('',(#990,#991,#992,#993));
#284=EDGE_LOOP('',(#994,#995,#996,#997));
#285=EDGE_LOOP('',(#998));
#286=EDGE_LOOP('',(#999));
#287=EDGE_LOOP('',(#1000));
#288=EDGE_LOOP('',(#1001));
#289=EDGE_LOOP('',(#1002,#1003,#1004,#1005));
#290=EDGE_LOOP('',(#1006,#1007,#1008,#1009));
#291=EDGE_LOOP('',(#1010,#1011,#1012,#1013));
#292=EDGE_LOOP('',(#1014,#1015,#1016,#1017));
#293=EDGE_LOOP('',(#1018));
#294=EDGE_LOOP('',(#1019));
#295=EDGE_LOOP('',(#1020));
#296=LINE('',#1623,#377);
#297=LINE('',#1625,#378);
#298=LINE('',#1627,#379);
#299=LINE('',#1628,#380);
#300=LINE('',#1631,#381);
#301=LINE('',#1633,#382);
#302=LINE('',#1634,#383);
#303=LINE('',#1637,#384);
#304=LINE('',#1639,#385);
#305=LINE('',#1640,#386);
#306=LINE('',#1642,#387);
#307=LINE('',#1643,#388);
#308=LINE('',#1648,#389);
#309=LINE('',#1654,#390);
#310=LINE('',#1659,#391);
#311=LINE('',#1661,#392);
#312=LINE('',#1663,#393);
#313=LINE('',#1664,#394);
#314=LINE('',#1667,#395);
#315=LINE('',#1669,#396);
#316=LINE('',#1670,#397);
#317=LINE('',#1673,#398);
#318=LINE('',#1675,#399);
#319=LINE('',#1676,#400);
#320=LINE('',#1678,#401);
#321=LINE('',#1679,#402);
#322=LINE('',#1693,#403);
#323=LINE('',#1710,#404);
#324=LINE('',#1727,#405);
#325=LINE('',#1744,#406);
#326=LINE('',#1752,#407);
#327=LINE('',#1760,#408);
#328=LINE('',#1767,#409);
#329=LINE('',#1775,#410);
#330=LINE('',#1783,#411);
#331=LINE('',#1791,#412);
#332=LINE('',#1798,#413);
#333=LINE('',#1806,#414);
#334=LINE('',#1814,#415);
#335=LINE('',#1822,#416);
#336=LINE('',#1829,#417);
#337=LINE('',#1837,#418);
#338=LINE('',#1843,#419);
#339=LINE('',#1845,#420);
#340=LINE('',#1847,#421);
#341=LINE('',#1848,#422);
#342=LINE('',#1851,#423);
#343=LINE('',#1853,#424);
#344=LINE('',#1854,#425);
#345=LINE('',#1857,#426);
#346=LINE('',#1859,#427);
#347=LINE('',#1860,#428);
#348=LINE('',#1862,#429);
#349=LINE('',#1863,#430);
#350=LINE('',#1868,#431);
#351=LINE('',#1874,#432);
#352=LINE('',#1880,#433);
#353=LINE('',#1885,#434);
#354=LINE('',#1887,#435);
#355=LINE('',#1889,#436);
#356=LINE('',#1890,#437);
#357=LINE('',#1893,#438);
#358=LINE('',#1895,#439);
#359=LINE('',#1896,#440);
#360=LINE('',#1899,#441);
#361=LINE('',#1900,#442);
#362=LINE('',#1903,#443);
#363=LINE('',#1904,#444);
#364=LINE('',#1906,#445);
#365=LINE('',#1910,#446);
#366=LINE('',#1912,#447);
#367=LINE('',#1914,#448);
#368=LINE('',#1915,#449);
#369=LINE('',#1918,#450);
#370=LINE('',#1920,#451);
#371=LINE('',#1921,#452);
#372=LINE('',#1924,#453);
#373=LINE('',#1925,#454);
#374=LINE('',#1928,#455);
#375=LINE('',#1929,#456);
#376=LINE('',#1931,#457);
#377=VECTOR('',#1272,10.);
#378=VECTOR('',#1273,10.);
#379=VECTOR('',#1274,10.);
#380=VECTOR('',#1275,10.);
#381=VECTOR('',#1278,10.);
#382=VECTOR('',#1279,10.);
#383=VECTOR('',#1280,10.);
#384=VECTOR('',#1283,10.);
#385=VECTOR('',#1284,10.);
#386=VECTOR('',#1285,10.);
#387=VECTOR('',#1288,10.);
#388=VECTOR('',#1289,10.);
#389=VECTOR('',#1294,5.4);
#390=VECTOR('',#1301,5.4);
#391=VECTOR('',#1306,10.);
#392=VECTOR('',#1307,10.);
#393=VECTOR('',#1308,10.);
#394=VECTOR('',#1309,10.);
#395=VECTOR('',#1312,10.);
#396=VECTOR('',#1313,10.);
#397=VECTOR('',#1314,10.);
#398=VECTOR('',#1317,10.);
#399=VECTOR('',#1318,10.);
#400=VECTOR('',#1319,10.);
#401=VECTOR('',#1322,10.);
#402=VECTOR('',#1323,10.);
#403=VECTOR('',#1338,4.94999999999999);
#404=VECTOR('',#1359,4.95);
#405=VECTOR('',#1380,4.95);
#406=VECTOR('',#1401,4.94999999999999);
#407=VECTOR('',#1412,2.10000000000001);
#408=VECTOR('',#1423,2.1);
#409=VECTOR('',#1432,2.1);
#410=VECTOR('',#1443,2.1);
#411=VECTOR('',#1454,2.10000000000001);
#412=VECTOR('',#1465,2.10000000000001);
#413=VECTOR('',#1474,3.00000000000001);
#414=VECTOR('',#1485,3.00000000000001);
#415=VECTOR('',#1496,3.);
#416=VECTOR('',#1507,3.);
#417=VECTOR('',#1516,3.);
#418=VECTOR('',#1527,3.00000000000001);
#419=VECTOR('',#1534,10.);
#420=VECTOR('',#1535,10.);
#421=VECTOR('',#1536,10.);
#422=VECTOR('',#1537,10.);
#423=VECTOR('',#1540,10.);
#424=VECTOR('',#1541,10.);
#425=VECTOR('',#1542,10.);
#426=VECTOR('',#1545,10.);
#427=VECTOR('',#1546,10.);
#428=VECTOR('',#1547,10.);
#429=VECTOR('',#1550,10.);
#430=VECTOR('',#1551,10.);
#431=VECTOR('',#1556,3.64999999999999);
#432=VECTOR('',#1563,5.4);
#433=VECTOR('',#1570,5.4);
#434=VECTOR('',#1575,10.);
#435=VECTOR('',#1576,10.);
#436=VECTOR('',#1577,10.);
#437=VECTOR('',#1578,10.);
#438=VECTOR('',#1581,10.);
#439=VECTOR('',#1582,10.);
#440=VECTOR('',#1583,10.);
#441=VECTOR('',#1586,10.);
#442=VECTOR('',#1587,10.);
#443=VECTOR('',#1590,10.);
#444=VECTOR('',#1591,10.);
#445=VECTOR('',#1594,10.);
#446=VECTOR('',#1597,10.);
#447=VECTOR('',#1598,10.);
#448=VECTOR('',#1599,10.);
#449=VECTOR('',#1600,10.);
#450=VECTOR('',#1603,10.);
#451=VECTOR('',#1604,10.);
#452=VECTOR('',#1605,10.);
#453=VECTOR('',#1608,10.);
#454=VECTOR('',#1609,10.);
#455=VECTOR('',#1612,10.);
#456=VECTOR('',#1613,10.);
#457=VECTOR('',#1616,10.);
#458=VERTEX_POINT('',#1621);
#459=VERTEX_POINT('',#1622);
#460=VERTEX_POINT('',#1624);
#461=VERTEX_POINT('',#1626);
#462=VERTEX_POINT('',#1630);
#463=VERTEX_POINT('',#1632);
#464=VERTEX_POINT('',#1636);
#465=VERTEX_POINT('',#1638);
#466=VERTEX_POINT('',#1645);
#467=VERTEX_POINT('',#1647);
#468=VERTEX_POINT('',#1651);
#469=VERTEX_POINT('',#1653);
#470=VERTEX_POINT('',#1657);
#471=VERTEX_POINT('',#1658);
#472=VERTEX_POINT('',#1660);
#473=VERTEX_POINT('',#1662);
#474=VERTEX_POINT('',#1666);
#475=VERTEX_POINT('',#1668);
#476=VERTEX_POINT('',#1672);
#477=VERTEX_POINT('',#1674);
#478=VERTEX_POINT('',#1681);
#479=VERTEX_POINT('',#1682);
#480=VERTEX_POINT('',#1684);
#481=VERTEX_POINT('',#1686);
#482=VERTEX_POINT('',#1690);
#483=VERTEX_POINT('',#1692);
#484=VERTEX_POINT('',#1698);
#485=VERTEX_POINT('',#1699);
#486=VERTEX_POINT('',#1701);
#487=VERTEX_POINT('',#1703);
#488=VERTEX_POINT('',#1707);
#489=VERTEX_POINT('',#1709);
#490=VERTEX_POINT('',#1715);
#491=VERTEX_POINT('',#1716);
#492=VERTEX_POINT('',#1718);
#493=VERTEX_POINT('',#1720);
#494=VERTEX_POINT('',#1724);
#495=VERTEX_POINT('',#1726);
#496=VERTEX_POINT('',#1732);
#497=VERTEX_POINT('',#1733);
#498=VERTEX_POINT('',#1735);
#499=VERTEX_POINT('',#1737);
#500=VERTEX_POINT('',#1741);
#501=VERTEX_POINT('',#1743);
#502=VERTEX_POINT('',#1749);
#503=VERTEX_POINT('',#1751);
#504=VERTEX_POINT('',#1756);
#505=VERTEX_POINT('',#1759);
#506=VERTEX_POINT('',#1764);
#507=VERTEX_POINT('',#1766);
#508=VERTEX_POINT('',#1771);
#509=VERTEX_POINT('',#1774);
#510=VERTEX_POINT('',#1779);
#511=VERTEX_POINT('',#1782);
#512=VERTEX_POINT('',#1787);
#513=VERTEX_POINT('',#1790);
#514=VERTEX_POINT('',#1795);
#515=VERTEX_POINT('',#1797);
#516=VERTEX_POINT('',#1803);
#517=VERTEX_POINT('',#1805);
#518=VERTEX_POINT('',#1811);
#519=VERTEX_POINT('',#1813);
#520=VERTEX_POINT('',#1819);
#521=VERTEX_POINT('',#1821);
#522=VERTEX_POINT('',#1826);
#523=VERTEX_POINT('',#1828);
#524=VERTEX_POINT('',#1834);
#525=VERTEX_POINT('',#1836);
#526=VERTEX_POINT('',#1841);
#527=VERTEX_POINT('',#1842);
#528=VERTEX_POINT('',#1844);
#529=VERTEX_POINT('',#1846);
#530=VERTEX_POINT('',#1850);
#531=VERTEX_POINT('',#1852);
#532=VERTEX_POINT('',#1856);
#533=VERTEX_POINT('',#1858);
#534=VERTEX_POINT('',#1865);
#535=VERTEX_POINT('',#1867);
#536=VERTEX_POINT('',#1871);
#537=VERTEX_POINT('',#1873);
#538=VERTEX_POINT('',#1877);
#539=VERTEX_POINT('',#1879);
#540=VERTEX_POINT('',#1883);
#541=VERTEX_POINT('',#1884);
#542=VERTEX_POINT('',#1886);
#543=VERTEX_POINT('',#1888);
#544=VERTEX_POINT('',#1892);
#545=VERTEX_POINT('',#1894);
#546=VERTEX_POINT('',#1898);
#547=VERTEX_POINT('',#1902);
#548=VERTEX_POINT('',#1908);
#549=VERTEX_POINT('',#1909);
#550=VERTEX_POINT('',#1911);
#551=VERTEX_POINT('',#1913);
#552=VERTEX_POINT('',#1917);
#553=VERTEX_POINT('',#1919);
#554=VERTEX_POINT('',#1923);
#555=VERTEX_POINT('',#1927);
#556=EDGE_CURVE('',#458,#459,#296,.T.);
#557=EDGE_CURVE('',#460,#458,#297,.T.);
#558=EDGE_CURVE('',#461,#460,#298,.T.);
#559=EDGE_CURVE('',#461,#459,#299,.T.);
#560=EDGE_CURVE('',#459,#462,#300,.T.);
#561=EDGE_CURVE('',#463,#461,#301,.T.);
#562=EDGE_CURVE('',#463,#462,#302,.T.);
#563=EDGE_CURVE('',#462,#464,#303,.T.);
#564=EDGE_CURVE('',#465,#463,#304,.T.);
#565=EDGE_CURVE('',#465,#464,#305,.T.);
#566=EDGE_CURVE('',#464,#458,#306,.T.);
#567=EDGE_CURVE('',#460,#465,#307,.T.);
#568=EDGE_CURVE('',#466,#466,#48,.T.);
#569=EDGE_CURVE('',#466,#467,#308,.T.);
#570=EDGE_CURVE('',#467,#467,#49,.T.);
#571=EDGE_CURVE('',#468,#468,#50,.T.);
#572=EDGE_CURVE('',#468,#469,#309,.T.);
#573=EDGE_CURVE('',#469,#469,#51,.T.);
#574=EDGE_CURVE('',#470,#471,#310,.T.);
#575=EDGE_CURVE('',#472,#470,#311,.T.);
#576=EDGE_CURVE('',#473,#472,#312,.T.);
#577=EDGE_CURVE('',#473,#471,#313,.T.);
#578=EDGE_CURVE('',#471,#474,#314,.T.);
#579=EDGE_CURVE('',#475,#473,#315,.T.);
#580=EDGE_CURVE('',#475,#474,#316,.T.);
#581=EDGE_CURVE('',#474,#476,#317,.T.);
#582=EDGE_CURVE('',#477,#475,#318,.T.);
#583=EDGE_CURVE('',#477,#476,#319,.T.);
#584=EDGE_CURVE('',#476,#470,#320,.T.);
#585=EDGE_CURVE('',#472,#477,#321,.T.);
#586=EDGE_CURVE('',#478,#479,#52,.T.);
#587=EDGE_CURVE('',#480,#479,#53,.T.);
#588=EDGE_CURVE('',#480,#481,#54,.T.);
#589=EDGE_CURVE('',#478,#481,#55,.T.);
#590=EDGE_CURVE('',#482,#482,#56,.T.);
#591=EDGE_CURVE('',#482,#483,#322,.T.);
#592=EDGE_CURVE('',#480,#483,#57,.T.);
#593=EDGE_CURVE('',#478,#479,#58,.T.);
#594=EDGE_CURVE('',#483,#481,#59,.T.);
#595=EDGE_CURVE('',#484,#485,#60,.T.);
#596=EDGE_CURVE('',#486,#485,#61,.T.);
#597=EDGE_CURVE('',#486,#487,#62,.T.);
#598=EDGE_CURVE('',#484,#487,#63,.T.);
#599=EDGE_CURVE('',#488,#488,#64,.T.);
#600=EDGE_CURVE('',#488,#489,#323,.T.);
#601=EDGE_CURVE('',#486,#489,#65,.T.);
#602=EDGE_CURVE('',#484,#485,#66,.T.);
#603=EDGE_CURVE('',#489,#487,#67,.T.);
#604=EDGE_CURVE('',#490,#491,#68,.T.);
#605=EDGE_CURVE('',#492,#491,#69,.T.);
#606=EDGE_CURVE('',#492,#493,#70,.T.);
#607=EDGE_CURVE('',#490,#493,#71,.T.);
#608=EDGE_CURVE('',#494,#494,#72,.T.);
#609=EDGE_CURVE('',#494,#495,#324,.T.);
#610=EDGE_CURVE('',#492,#495,#73,.T.);
#611=EDGE_CURVE('',#490,#491,#74,.T.);
#612=EDGE_CURVE('',#495,#493,#75,.T.);
#613=EDGE_CURVE('',#496,#497,#76,.T.);
#614=EDGE_CURVE('',#498,#497,#77,.T.);
#615=EDGE_CURVE('',#498,#499,#78,.T.);
#616=EDGE_CURVE('',#496,#499,#79,.T.);
#617=EDGE_CURVE('',#500,#500,#80,.T.);
#618=EDGE_CURVE('',#500,#501,#325,.T.);
#619=EDGE_CURVE('',#498,#501,#81,.T.);
#620=EDGE_CURVE('',#496,#497,#82,.T.);
#621=EDGE_CURVE('',#501,#499,#83,.T.);
#622=EDGE_CURVE('',#502,#502,#84,.T.);
#623=EDGE_CURVE('',#502,#503,#326,.T.);
#624=EDGE_CURVE('',#503,#503,#85,.T.);
#625=EDGE_CURVE('',#491,#504,#86,.T.);
#626=EDGE_CURVE('',#504,#490,#87,.T.);
#627=EDGE_CURVE('',#504,#505,#327,.T.);
#628=EDGE_CURVE('',#505,#505,#88,.T.);
#629=EDGE_CURVE('',#506,#506,#89,.T.);
#630=EDGE_CURVE('',#506,#507,#328,.T.);
#631=EDGE_CURVE('',#507,#507,#90,.T.);
#632=EDGE_CURVE('',#485,#508,#91,.T.);
#633=EDGE_CURVE('',#508,#484,#92,.T.);
#634=EDGE_CURVE('',#508,#509,#329,.T.);
#635=EDGE_CURVE('',#509,#509,#93,.T.);
#636=EDGE_CURVE('',#479,#510,#94,.T.);
#637=EDGE_CURVE('',#510,#478,#95,.T.);
#638=EDGE_CURVE('',#510,#511,#330,.T.);
#639=EDGE_CURVE('',#511,#511,#96,.T.);
#640=EDGE_CURVE('',#497,#512,#97,.T.);
#641=EDGE_CURVE('',#512,#496,#98,.T.);
#642=EDGE_CURVE('',#512,#513,#331,.T.);
#643=EDGE_CURVE('',#513,#513,#99,.T.);
#644=EDGE_CURVE('',#514,#514,#100,.T.);
#645=EDGE_CURVE('',#514,#515,#332,.T.);
#646=EDGE_CURVE('',#499,#515,#101,.T.);
#647=EDGE_CURVE('',#515,#498,#102,.T.);
#648=EDGE_CURVE('',#516,#516,#103,.T.);
#649=EDGE_CURVE('',#516,#517,#333,.T.);
#650=EDGE_CURVE('',#481,#517,#104,.T.);
#651=EDGE_CURVE('',#517,#480,#105,.T.);
#652=EDGE_CURVE('',#518,#518,#106,.T.);
#653=EDGE_CURVE('',#518,#519,#334,.T.);
#654=EDGE_CURVE('',#487,#519,#107,.T.);
#655=EDGE_CURVE('',#519,#486,#108,.T.);
#656=EDGE_CURVE('',#520,#520,#109,.T.);
#657=EDGE_CURVE('',#520,#521,#335,.T.);
#658=EDGE_CURVE('',#521,#521,#110,.T.);
#659=EDGE_CURVE('',#522,#522,#111,.T.);
#660=EDGE_CURVE('',#522,#523,#336,.T.);
#661=EDGE_CURVE('',#493,#523,#112,.T.);
#662=EDGE_CURVE('',#523,#492,#113,.T.);
#663=EDGE_CURVE('',#524,#524,#114,.T.);
#664=EDGE_CURVE('',#524,#525,#337,.T.);
#665=EDGE_CURVE('',#525,#525,#115,.T.);
#666=EDGE_CURVE('',#526,#527,#338,.T.);
#667=EDGE_CURVE('',#528,#526,#339,.T.);
#668=EDGE_CURVE('',#529,#528,#340,.T.);
#669=EDGE_CURVE('',#529,#527,#341,.T.);
#670=EDGE_CURVE('',#527,#530,#342,.T.);
#671=EDGE_CURVE('',#531,#529,#343,.T.);
#672=EDGE_CURVE('',#531,#530,#344,.T.);
#673=EDGE_CURVE('',#530,#532,#345,.T.);
#674=EDGE_CURVE('',#533,#531,#346,.T.);
#675=EDGE_CURVE('',#533,#532,#347,.T.);
#676=EDGE_CURVE('',#532,#526,#348,.T.);
#677=EDGE_CURVE('',#528,#533,#349,.T.);
#678=EDGE_CURVE('',#534,#534,#116,.T.);
#679=EDGE_CURVE('',#534,#535,#350,.T.);
#680=EDGE_CURVE('',#535,#535,#117,.T.);
#681=EDGE_CURVE('',#536,#536,#118,.T.);
#682=EDGE_CURVE('',#536,#537,#351,.T.);
#683=EDGE_CURVE('',#537,#537,#119,.T.);
#684=EDGE_CURVE('',#538,#538,#120,.T.);
#685=EDGE_CURVE('',#538,#539,#352,.T.);
#686=EDGE_CURVE('',#539,#539,#121,.T.);
#687=EDGE_CURVE('',#540,#541,#353,.T.);
#688=EDGE_CURVE('',#542,#540,#354,.T.);
#689=EDGE_CURVE('',#543,#542,#355,.T.);
#690=EDGE_CURVE('',#541,#543,#356,.T.);
#691=EDGE_CURVE('',#541,#544,#357,.T.);
#692=EDGE_CURVE('',#543,#545,#358,.F.);
#693=EDGE_CURVE('',#545,#544,#359,.F.);
#694=EDGE_CURVE('',#542,#546,#360,.F.);
#695=EDGE_CURVE('',#546,#545,#361,.F.);
#696=EDGE_CURVE('',#547,#540,#362,.T.);
#697=EDGE_CURVE('',#547,#546,#363,.F.);
#698=EDGE_CURVE('',#544,#547,#364,.T.);
#699=EDGE_CURVE('',#548,#549,#365,.T.);
#700=EDGE_CURVE('',#549,#550,#366,.T.);
#701=EDGE_CURVE('',#550,#551,#367,.T.);
#702=EDGE_CURVE('',#551,#548,#368,.T.);
#703=EDGE_CURVE('',#552,#549,#369,.T.);
#704=EDGE_CURVE('',#553,#552,#370,.T.);
#705=EDGE_CURVE('',#550,#553,#371,.T.);
#706=EDGE_CURVE('',#554,#553,#372,.T.);
#707=EDGE_CURVE('',#551,#554,#373,.T.);
#708=EDGE_CURVE('',#555,#554,#374,.T.);
#709=EDGE_CURVE('',#548,#555,#375,.T.);
#710=EDGE_CURVE('',#552,#555,#376,.T.);
#711=ORIENTED_EDGE('',*,*,#556,.F.);
#712=ORIENTED_EDGE('',*,*,#557,.F.);
#713=ORIENTED_EDGE('',*,*,#558,.F.);
#714=ORIENTED_EDGE('',*,*,#559,.T.);
#715=ORIENTED_EDGE('',*,*,#560,.F.);
#716=ORIENTED_EDGE('',*,*,#559,.F.);
#717=ORIENTED_EDGE('',*,*,#561,.F.);
#718=ORIENTED_EDGE('',*,*,#562,.T.);
#719=ORIENTED_EDGE('',*,*,#563,.F.);
#720=ORIENTED_EDGE('',*,*,#562,.F.);
#721=ORIENTED_EDGE('',*,*,#564,.F.);
#722=ORIENTED_EDGE('',*,*,#565,.T.);
#723=ORIENTED_EDGE('',*,*,#566,.F.);
#724=ORIENTED_EDGE('',*,*,#565,.F.);
#725=ORIENTED_EDGE('',*,*,#567,.F.);
#726=ORIENTED_EDGE('',*,*,#557,.T.);
#727=ORIENTED_EDGE('',*,*,#568,.F.);
#728=ORIENTED_EDGE('',*,*,#569,.T.);
#729=ORIENTED_EDGE('',*,*,#570,.F.);
#730=ORIENTED_EDGE('',*,*,#569,.F.);
#731=ORIENTED_EDGE('',*,*,#571,.F.);
#732=ORIENTED_EDGE('',*,*,#572,.T.);
#733=ORIENTED_EDGE('',*,*,#573,.F.);
#734=ORIENTED_EDGE('',*,*,#572,.F.);
#735=ORIENTED_EDGE('',*,*,#574,.F.);
#736=ORIENTED_EDGE('',*,*,#575,.F.);
#737=ORIENTED_EDGE('',*,*,#576,.F.);
#738=ORIENTED_EDGE('',*,*,#577,.T.);
#739=ORIENTED_EDGE('',*,*,#578,.F.);
#740=ORIENTED_EDGE('',*,*,#577,.F.);
#741=ORIENTED_EDGE('',*,*,#579,.F.);
#742=ORIENTED_EDGE('',*,*,#580,.T.);
#743=ORIENTED_EDGE('',*,*,#581,.F.);
#744=ORIENTED_EDGE('',*,*,#580,.F.);
#745=ORIENTED_EDGE('',*,*,#582,.F.);
#746=ORIENTED_EDGE('',*,*,#583,.T.);
#747=ORIENTED_EDGE('',*,*,#584,.F.);
#748=ORIENTED_EDGE('',*,*,#583,.F.);
#749=ORIENTED_EDGE('',*,*,#585,.F.);
#750=ORIENTED_EDGE('',*,*,#575,.T.);
#751=ORIENTED_EDGE('',*,*,#586,.T.);
#752=ORIENTED_EDGE('',*,*,#587,.F.);
#753=ORIENTED_EDGE('',*,*,#588,.T.);
#754=ORIENTED_EDGE('',*,*,#589,.F.);
#755=ORIENTED_EDGE('',*,*,#590,.F.);
#756=ORIENTED_EDGE('',*,*,#591,.T.);
#757=ORIENTED_EDGE('',*,*,#592,.F.);
#758=ORIENTED_EDGE('',*,*,#587,.T.);
#759=ORIENTED_EDGE('',*,*,#593,.F.);
#760=ORIENTED_EDGE('',*,*,#589,.T.);
#761=ORIENTED_EDGE('',*,*,#594,.F.);
#762=ORIENTED_EDGE('',*,*,#591,.F.);
#763=ORIENTED_EDGE('',*,*,#595,.T.);
#764=ORIENTED_EDGE('',*,*,#596,.F.);
#765=ORIENTED_EDGE('',*,*,#597,.T.);
#766=ORIENTED_EDGE('',*,*,#598,.F.);
#767=ORIENTED_EDGE('',*,*,#599,.F.);
#768=ORIENTED_EDGE('',*,*,#600,.T.);
#769=ORIENTED_EDGE('',*,*,#601,.F.);
#770=ORIENTED_EDGE('',*,*,#596,.T.);
#771=ORIENTED_EDGE('',*,*,#602,.F.);
#772=ORIENTED_EDGE('',*,*,#598,.T.);
#773=ORIENTED_EDGE('',*,*,#603,.F.);
#774=ORIENTED_EDGE('',*,*,#600,.F.);
#775=ORIENTED_EDGE('',*,*,#604,.T.);
#776=ORIENTED_EDGE('',*,*,#605,.F.);
#777=ORIENTED_EDGE('',*,*,#606,.T.);
#778=ORIENTED_EDGE('',*,*,#607,.F.);
#779=ORIENTED_EDGE('',*,*,#608,.F.);
#780=ORIENTED_EDGE('',*,*,#609,.T.);
#781=ORIENTED_EDGE('',*,*,#610,.F.);
#782=ORIENTED_EDGE('',*,*,#605,.T.);
#783=ORIENTED_EDGE('',*,*,#611,.F.);
#784=ORIENTED_EDGE('',*,*,#607,.T.);
#785=ORIENTED_EDGE('',*,*,#612,.F.);
#786=ORIENTED_EDGE('',*,*,#609,.F.);
#787=ORIENTED_EDGE('',*,*,#613,.T.);
#788=ORIENTED_EDGE('',*,*,#614,.F.);
#789=ORIENTED_EDGE('',*,*,#615,.T.);
#790=ORIENTED_EDGE('',*,*,#616,.F.);
#791=ORIENTED_EDGE('',*,*,#617,.F.);
#792=ORIENTED_EDGE('',*,*,#618,.T.);
#793=ORIENTED_EDGE('',*,*,#619,.F.);
#794=ORIENTED_EDGE('',*,*,#614,.T.);
#795=ORIENTED_EDGE('',*,*,#620,.F.);
#796=ORIENTED_EDGE('',*,*,#616,.T.);
#797=ORIENTED_EDGE('',*,*,#621,.F.);
#798=ORIENTED_EDGE('',*,*,#618,.F.);
#799=ORIENTED_EDGE('',*,*,#622,.F.);
#800=ORIENTED_EDGE('',*,*,#623,.T.);
#801=ORIENTED_EDGE('',*,*,#624,.F.);
#802=ORIENTED_EDGE('',*,*,#623,.F.);
#803=ORIENTED_EDGE('',*,*,#622,.T.);
#804=ORIENTED_EDGE('',*,*,#625,.F.);
#805=ORIENTED_EDGE('',*,*,#604,.F.);
#806=ORIENTED_EDGE('',*,*,#626,.F.);
#807=ORIENTED_EDGE('',*,*,#627,.T.);
#808=ORIENTED_EDGE('',*,*,#628,.F.);
#809=ORIENTED_EDGE('',*,*,#627,.F.);
#810=ORIENTED_EDGE('',*,*,#611,.T.);
#811=ORIENTED_EDGE('',*,*,#625,.T.);
#812=ORIENTED_EDGE('',*,*,#626,.T.);
#813=ORIENTED_EDGE('',*,*,#629,.F.);
#814=ORIENTED_EDGE('',*,*,#630,.T.);
#815=ORIENTED_EDGE('',*,*,#631,.F.);
#816=ORIENTED_EDGE('',*,*,#630,.F.);
#817=ORIENTED_EDGE('',*,*,#629,.T.);
#818=ORIENTED_EDGE('',*,*,#632,.F.);
#819=ORIENTED_EDGE('',*,*,#595,.F.);
#820=ORIENTED_EDGE('',*,*,#633,.F.);
#821=ORIENTED_EDGE('',*,*,#634,.T.);
#822=ORIENTED_EDGE('',*,*,#635,.F.);
#823=ORIENTED_EDGE('',*,*,#634,.F.);
#824=ORIENTED_EDGE('',*,*,#602,.T.);
#825=ORIENTED_EDGE('',*,*,#632,.T.);
#826=ORIENTED_EDGE('',*,*,#633,.T.);
#827=ORIENTED_EDGE('',*,*,#636,.F.);
#828=ORIENTED_EDGE('',*,*,#586,.F.);
#829=ORIENTED_EDGE('',*,*,#637,.F.);
#830=ORIENTED_EDGE('',*,*,#638,.T.);
#831=ORIENTED_EDGE('',*,*,#639,.F.);
#832=ORIENTED_EDGE('',*,*,#638,.F.);
#833=ORIENTED_EDGE('',*,*,#593,.T.);
#834=ORIENTED_EDGE('',*,*,#636,.T.);
#835=ORIENTED_EDGE('',*,*,#637,.T.);
#836=ORIENTED_EDGE('',*,*,#640,.F.);
#837=ORIENTED_EDGE('',*,*,#613,.F.);
#838=ORIENTED_EDGE('',*,*,#641,.F.);
#839=ORIENTED_EDGE('',*,*,#642,.T.);
#840=ORIENTED_EDGE('',*,*,#643,.F.);
#841=ORIENTED_EDGE('',*,*,#642,.F.);
#842=ORIENTED_EDGE('',*,*,#620,.T.);
#843=ORIENTED_EDGE('',*,*,#640,.T.);
#844=ORIENTED_EDGE('',*,*,#641,.T.);
#845=ORIENTED_EDGE('',*,*,#644,.F.);
#846=ORIENTED_EDGE('',*,*,#645,.T.);
#847=ORIENTED_EDGE('',*,*,#646,.F.);
#848=ORIENTED_EDGE('',*,*,#615,.F.);
#849=ORIENTED_EDGE('',*,*,#647,.F.);
#850=ORIENTED_EDGE('',*,*,#645,.F.);
#851=ORIENTED_EDGE('',*,*,#644,.T.);
#852=ORIENTED_EDGE('',*,*,#643,.T.);
#853=ORIENTED_EDGE('',*,*,#648,.F.);
#854=ORIENTED_EDGE('',*,*,#649,.T.);
#855=ORIENTED_EDGE('',*,*,#650,.F.);
#856=ORIENTED_EDGE('',*,*,#588,.F.);
#857=ORIENTED_EDGE('',*,*,#651,.F.);
#858=ORIENTED_EDGE('',*,*,#649,.F.);
#859=ORIENTED_EDGE('',*,*,#648,.T.);
#860=ORIENTED_EDGE('',*,*,#639,.T.);
#861=ORIENTED_EDGE('',*,*,#652,.F.);
#862=ORIENTED_EDGE('',*,*,#653,.T.);
#863=ORIENTED_EDGE('',*,*,#654,.F.);
#864=ORIENTED_EDGE('',*,*,#597,.F.);
#865=ORIENTED_EDGE('',*,*,#655,.F.);
#866=ORIENTED_EDGE('',*,*,#653,.F.);
#867=ORIENTED_EDGE('',*,*,#652,.T.);
#868=ORIENTED_EDGE('',*,*,#635,.T.);
#869=ORIENTED_EDGE('',*,*,#656,.F.);
#870=ORIENTED_EDGE('',*,*,#657,.T.);
#871=ORIENTED_EDGE('',*,*,#658,.F.);
#872=ORIENTED_EDGE('',*,*,#657,.F.);
#873=ORIENTED_EDGE('',*,*,#656,.T.);
#874=ORIENTED_EDGE('',*,*,#631,.T.);
#875=ORIENTED_EDGE('',*,*,#659,.F.);
#876=ORIENTED_EDGE('',*,*,#660,.T.);
#877=ORIENTED_EDGE('',*,*,#661,.F.);
#878=ORIENTED_EDGE('',*,*,#606,.F.);
#879=ORIENTED_EDGE('',*,*,#662,.F.);
#880=ORIENTED_EDGE('',*,*,#660,.F.);
#881=ORIENTED_EDGE('',*,*,#659,.T.);
#882=ORIENTED_EDGE('',*,*,#628,.T.);
#883=ORIENTED_EDGE('',*,*,#663,.F.);
#884=ORIENTED_EDGE('',*,*,#664,.T.);
#885=ORIENTED_EDGE('',*,*,#665,.F.);
#886=ORIENTED_EDGE('',*,*,#664,.F.);
#887=ORIENTED_EDGE('',*,*,#663,.T.);
#888=ORIENTED_EDGE('',*,*,#624,.T.);
#889=ORIENTED_EDGE('',*,*,#666,.F.);
#890=ORIENTED_EDGE('',*,*,#667,.F.);
#891=ORIENTED_EDGE('',*,*,#668,.F.);
#892=ORIENTED_EDGE('',*,*,#669,.T.);
#893=ORIENTED_EDGE('',*,*,#670,.F.);
#894=ORIENTED_EDGE('',*,*,#669,.F.);
#895=ORIENTED_EDGE('',*,*,#671,.F.);
#896=ORIENTED_EDGE('',*,*,#672,.T.);
#897=ORIENTED_EDGE('',*,*,#673,.F.);
#898=ORIENTED_EDGE('',*,*,#672,.F.);
#899=ORIENTED_EDGE('',*,*,#674,.F.);
#900=ORIENTED_EDGE('',*,*,#675,.T.);
#901=ORIENTED_EDGE('',*,*,#676,.F.);
#902=ORIENTED_EDGE('',*,*,#675,.F.);
#903=ORIENTED_EDGE('',*,*,#677,.F.);
#904=ORIENTED_EDGE('',*,*,#667,.T.);
#905=ORIENTED_EDGE('',*,*,#678,.F.);
#906=ORIENTED_EDGE('',*,*,#679,.T.);
#907=ORIENTED_EDGE('',*,*,#680,.F.);
#908=ORIENTED_EDGE('',*,*,#679,.F.);
#909=ORIENTED_EDGE('',*,*,#681,.F.);
#910=ORIENTED_EDGE('',*,*,#682,.T.);
#911=ORIENTED_EDGE('',*,*,#683,.F.);
#912=ORIENTED_EDGE('',*,*,#682,.F.);
#913=ORIENTED_EDGE('',*,*,#684,.F.);
#914=ORIENTED_EDGE('',*,*,#685,.T.);
#915=ORIENTED_EDGE('',*,*,#686,.F.);
#916=ORIENTED_EDGE('',*,*,#685,.F.);
#917=ORIENTED_EDGE('',*,*,#687,.F.);
#918=ORIENTED_EDGE('',*,*,#688,.F.);
#919=ORIENTED_EDGE('',*,*,#689,.F.);
#920=ORIENTED_EDGE('',*,*,#690,.F.);
#921=ORIENTED_EDGE('',*,*,#563,.T.);
#922=ORIENTED_EDGE('',*,*,#566,.T.);
#923=ORIENTED_EDGE('',*,*,#556,.T.);
#924=ORIENTED_EDGE('',*,*,#560,.T.);
#925=ORIENTED_EDGE('',*,*,#570,.T.);
#926=ORIENTED_EDGE('',*,*,#573,.T.);
#927=ORIENTED_EDGE('',*,*,#581,.T.);
#928=ORIENTED_EDGE('',*,*,#584,.T.);
#929=ORIENTED_EDGE('',*,*,#574,.T.);
#930=ORIENTED_EDGE('',*,*,#578,.T.);
#931=ORIENTED_EDGE('',*,*,#691,.F.);
#932=ORIENTED_EDGE('',*,*,#690,.T.);
#933=ORIENTED_EDGE('',*,*,#692,.T.);
#934=ORIENTED_EDGE('',*,*,#693,.T.);
#935=ORIENTED_EDGE('',*,*,#673,.T.);
#936=ORIENTED_EDGE('',*,*,#676,.T.);
#937=ORIENTED_EDGE('',*,*,#666,.T.);
#938=ORIENTED_EDGE('',*,*,#670,.T.);
#939=ORIENTED_EDGE('',*,*,#692,.F.);
#940=ORIENTED_EDGE('',*,*,#689,.T.);
#941=ORIENTED_EDGE('',*,*,#694,.T.);
#942=ORIENTED_EDGE('',*,*,#695,.T.);
#943=ORIENTED_EDGE('',*,*,#665,.T.);
#944=ORIENTED_EDGE('',*,*,#610,.T.);
#945=ORIENTED_EDGE('',*,*,#612,.T.);
#946=ORIENTED_EDGE('',*,*,#661,.T.);
#947=ORIENTED_EDGE('',*,*,#662,.T.);
#948=ORIENTED_EDGE('',*,*,#658,.T.);
#949=ORIENTED_EDGE('',*,*,#601,.T.);
#950=ORIENTED_EDGE('',*,*,#603,.T.);
#951=ORIENTED_EDGE('',*,*,#654,.T.);
#952=ORIENTED_EDGE('',*,*,#655,.T.);
#953=ORIENTED_EDGE('',*,*,#592,.T.);
#954=ORIENTED_EDGE('',*,*,#594,.T.);
#955=ORIENTED_EDGE('',*,*,#650,.T.);
#956=ORIENTED_EDGE('',*,*,#651,.T.);
#957=ORIENTED_EDGE('',*,*,#619,.T.);
#958=ORIENTED_EDGE('',*,*,#621,.T.);
#959=ORIENTED_EDGE('',*,*,#646,.T.);
#960=ORIENTED_EDGE('',*,*,#647,.T.);
#961=ORIENTED_EDGE('',*,*,#694,.F.);
#962=ORIENTED_EDGE('',*,*,#688,.T.);
#963=ORIENTED_EDGE('',*,*,#696,.F.);
#964=ORIENTED_EDGE('',*,*,#697,.T.);
#965=ORIENTED_EDGE('',*,*,#698,.F.);
#966=ORIENTED_EDGE('',*,*,#693,.F.);
#967=ORIENTED_EDGE('',*,*,#695,.F.);
#968=ORIENTED_EDGE('',*,*,#697,.F.);
#969=ORIENTED_EDGE('',*,*,#680,.T.);
#970=ORIENTED_EDGE('',*,*,#683,.T.);
#971=ORIENTED_EDGE('',*,*,#686,.T.);
#972=ORIENTED_EDGE('',*,*,#699,.T.);
#973=ORIENTED_EDGE('',*,*,#700,.T.);
#974=ORIENTED_EDGE('',*,*,#701,.T.);
#975=ORIENTED_EDGE('',*,*,#702,.T.);
#976=ORIENTED_EDGE('',*,*,#564,.T.);
#977=ORIENTED_EDGE('',*,*,#561,.T.);
#978=ORIENTED_EDGE('',*,*,#558,.T.);
#979=ORIENTED_EDGE('',*,*,#567,.T.);
#980=ORIENTED_EDGE('',*,*,#568,.T.);
#981=ORIENTED_EDGE('',*,*,#571,.T.);
#982=ORIENTED_EDGE('',*,*,#582,.T.);
#983=ORIENTED_EDGE('',*,*,#579,.T.);
#984=ORIENTED_EDGE('',*,*,#576,.T.);
#985=ORIENTED_EDGE('',*,*,#585,.T.);
#986=ORIENTED_EDGE('',*,*,#703,.F.);
#987=ORIENTED_EDGE('',*,*,#704,.F.);
#988=ORIENTED_EDGE('',*,*,#705,.F.);
#989=ORIENTED_EDGE('',*,*,#700,.F.);
#990=ORIENTED_EDGE('',*,*,#674,.T.);
#991=ORIENTED_EDGE('',*,*,#671,.T.);
#992=ORIENTED_EDGE('',*,*,#668,.T.);
#993=ORIENTED_EDGE('',*,*,#677,.T.);
#994=ORIENTED_EDGE('',*,*,#705,.T.);
#995=ORIENTED_EDGE('',*,*,#706,.F.);
#996=ORIENTED_EDGE('',*,*,#707,.F.);
#997=ORIENTED_EDGE('',*,*,#701,.F.);
#998=ORIENTED_EDGE('',*,*,#590,.T.);
#999=ORIENTED_EDGE('',*,*,#599,.T.);
#1000=ORIENTED_EDGE('',*,*,#608,.T.);
#1001=ORIENTED_EDGE('',*,*,#617,.T.);
#1002=ORIENTED_EDGE('',*,*,#707,.T.);
#1003=ORIENTED_EDGE('',*,*,#708,.F.);
#1004=ORIENTED_EDGE('',*,*,#709,.F.);
#1005=ORIENTED_EDGE('',*,*,#702,.F.);
#1006=ORIENTED_EDGE('',*,*,#709,.T.);
#1007=ORIENTED_EDGE('',*,*,#710,.F.);
#1008=ORIENTED_EDGE('',*,*,#703,.T.);
#1009=ORIENTED_EDGE('',*,*,#699,.F.);
#1010=ORIENTED_EDGE('',*,*,#687,.T.);
#1011=ORIENTED_EDGE('',*,*,#691,.T.);
#1012=ORIENTED_EDGE('',*,*,#698,.T.);
#1013=ORIENTED_EDGE('',*,*,#696,.T.);
#1014=ORIENTED_EDGE('',*,*,#710,.T.);
#1015=ORIENTED_EDGE('',*,*,#708,.T.);
#1016=ORIENTED_EDGE('',*,*,#706,.T.);
#1017=ORIENTED_EDGE('',*,*,#704,.T.);
#1018=ORIENTED_EDGE('',*,*,#678,.T.);
#1019=ORIENTED_EDGE('',*,*,#681,.T.);
#1020=ORIENTED_EDGE('',*,*,#684,.T.);
#1021=PLANE('',#1134);
#1022=PLANE('',#1135);
#1023=PLANE('',#1136);
#1024=PLANE('',#1137);
#1025=PLANE('',#1144);
#1026=PLANE('',#1145);
#1027=PLANE('',#1146);
#1028=PLANE('',#1147);
#1029=PLANE('',#1148);
#1030=PLANE('',#1158);
#1031=PLANE('',#1168);
#1032=PLANE('',#1178);
#1033=PLANE('',#1191);
#1034=PLANE('',#1196);
#1035=PLANE('',#1200);
#1036=PLANE('',#1205);
#1037=PLANE('',#1210);
#1038=PLANE('',#1215);
#1039=PLANE('',#1220);
#1040=PLANE('',#1225);
#1041=PLANE('',#1230);
#1042=PLANE('',#1234);
#1043=PLANE('',#1239);
#1044=PLANE('',#1243);
#1045=PLANE('',#1244);
#1046=PLANE('',#1245);
#1047=PLANE('',#1246);
#1048=PLANE('',#1247);
#1049=PLANE('',#1257);
#1050=PLANE('',#1258);
#1051=PLANE('',#1259);
#1052=PLANE('',#1260);
#1053=PLANE('',#1261);
#1054=PLANE('',#1262);
#1055=PLANE('',#1263);
#1056=PLANE('',#1264);
#1057=PLANE('',#1265);
#1058=PLANE('',#1266);
#1059=PLANE('',#1267);
#1060=ADVANCED_FACE('',(#143),#1021,.F.);
#1061=ADVANCED_FACE('',(#144),#1022,.F.);
#1062=ADVANCED_FACE('',(#145),#1023,.F.);
#1063=ADVANCED_FACE('',(#146),#1024,.F.);
#1064=ADVANCED_FACE('',(#147),#122,.F.);
#1065=ADVANCED_FACE('',(#148),#123,.F.);
#1066=ADVANCED_FACE('',(#149),#1025,.F.);
#1067=ADVANCED_FACE('',(#150),#1026,.F.);
#1068=ADVANCED_FACE('',(#151),#1027,.F.);
#1069=ADVANCED_FACE('',(#152),#1028,.F.);
#1070=ADVANCED_FACE('',(#153),#1029,.F.);
#1071=ADVANCED_FACE('',(#154),#124,.F.);
#1072=ADVANCED_FACE('',(#155),#1030,.F.);
#1073=ADVANCED_FACE('',(#156),#125,.F.);
#1074=ADVANCED_FACE('',(#157),#1031,.F.);
#1075=ADVANCED_FACE('',(#158),#126,.F.);
#1076=ADVANCED_FACE('',(#159),#1032,.F.);
#1077=ADVANCED_FACE('',(#160),#127,.F.);
#1078=ADVANCED_FACE('',(#161),#128,.F.);
#1079=ADVANCED_FACE('',(#162),#1033,.T.);
#1080=ADVANCED_FACE('',(#163),#129,.F.);
#1081=ADVANCED_FACE('',(#164),#1034,.T.);
#1082=ADVANCED_FACE('',(#165),#130,.F.);
#1083=ADVANCED_FACE('',(#166),#1035,.T.);
#1084=ADVANCED_FACE('',(#167),#131,.F.);
#1085=ADVANCED_FACE('',(#168),#1036,.T.);
#1086=ADVANCED_FACE('',(#169),#132,.F.);
#1087=ADVANCED_FACE('',(#170),#1037,.T.);
#1088=ADVANCED_FACE('',(#171),#133,.F.);
#1089=ADVANCED_FACE('',(#172),#1038,.T.);
#1090=ADVANCED_FACE('',(#173),#134,.T.);
#1091=ADVANCED_FACE('',(#174,#15),#1039,.T.);
#1092=ADVANCED_FACE('',(#175),#135,.T.);
#1093=ADVANCED_FACE('',(#176,#16),#1040,.T.);
#1094=ADVANCED_FACE('',(#177),#136,.T.);
#1095=ADVANCED_FACE('',(#178,#17),#1041,.T.);
#1096=ADVANCED_FACE('',(#179),#137,.T.);
#1097=ADVANCED_FACE('',(#180,#18),#1042,.T.);
#1098=ADVANCED_FACE('',(#181),#138,.T.);
#1099=ADVANCED_FACE('',(#182,#19),#1043,.T.);
#1100=ADVANCED_FACE('',(#183),#139,.T.);
#1101=ADVANCED_FACE('',(#184,#20),#1044,.T.);
#1102=ADVANCED_FACE('',(#185),#1045,.F.);
#1103=ADVANCED_FACE('',(#186),#1046,.F.);
#1104=ADVANCED_FACE('',(#187),#1047,.F.);
#1105=ADVANCED_FACE('',(#188),#1048,.F.);
#1106=ADVANCED_FACE('',(#189),#140,.F.);
#1107=ADVANCED_FACE('',(#190),#141,.F.);
#1108=ADVANCED_FACE('',(#191),#142,.F.);
#1109=ADVANCED_FACE('',(#192,#21,#22,#23,#24),#1049,.F.);
#1110=ADVANCED_FACE('',(#193,#25),#1050,.F.);
#1111=ADVANCED_FACE('',(#194,#26,#27,#28,#29,#30,#31),#1051,.F.);
#1112=ADVANCED_FACE('',(#195),#1052,.F.);
#1113=ADVANCED_FACE('',(#196,#32,#33,#34),#1053,.F.);
#1114=ADVANCED_FACE('',(#197,#35,#36,#37,#38),#1054,.T.);
#1115=ADVANCED_FACE('',(#198,#39),#1055,.T.);
#1116=ADVANCED_FACE('',(#199,#40,#41,#42,#43),#1056,.T.);
#1117=ADVANCED_FACE('',(#200),#1057,.T.);
#1118=ADVANCED_FACE('',(#201,#44),#1058,.T.);
#1119=ADVANCED_FACE('',(#202,#45,#46,#47),#1059,.T.);
#1120=CLOSED_SHELL('',(#1060,#1061,#1062,#1063,#1064,#1065,#1066,#1067,
#1068,#1069,#1070,#1071,#1072,#1073,#1074,#1075,#1076,#1077,#1078,#1079,
#1080,#1081,#1082,#1083,#1084,#1085,#1086,#1087,#1088,#1089,#1090,#1091,
#1092,#1093,#1094,#1095,#1096,#1097,#1098,#1099,#1100,#1101,#1102,#1103,
#1104,#1105,#1106,#1107,#1108,#1109,#1110,#1111,#1112,#1113,#1114,#1115,
#1116,#1117,#1118,#1119));
#1121=DERIVED_UNIT_ELEMENT(#1123,1.);
#1122=DERIVED_UNIT_ELEMENT(#1938,-3.);
#1123=(
MASS_UNIT()
NAMED_UNIT(*)
SI_UNIT(.KILO.,.GRAM.)
);
#1124=DERIVED_UNIT((#1121,#1122));
#1125=MEASURE_REPRESENTATION_ITEM('density measure',
POSITIVE_RATIO_MEASURE(7850.),#1124);
#1126=PROPERTY_DEFINITION_REPRESENTATION(#1131,#1128);
#1127=PROPERTY_DEFINITION_REPRESENTATION(#1132,#1129);
#1128=REPRESENTATION('material name',(#1130),#1935);
#1129=REPRESENTATION('density',(#1125),#1935);
#1130=DESCRIPTIVE_REPRESENTATION_ITEM('Steel','Steel');
#1131=PROPERTY_DEFINITION('material property','material name',#1945);
#1132=PROPERTY_DEFINITION('material property','density of part',#1945);
#1133=AXIS2_PLACEMENT_3D('',#1619,#1268,#1269);
#1134=AXIS2_PLACEMENT_3D('',#1620,#1270,#1271);
#1135=AXIS2_PLACEMENT_3D('',#1629,#1276,#1277);
#1136=AXIS2_PLACEMENT_3D('',#1635,#1281,#1282);
#1137=AXIS2_PLACEMENT_3D('',#1641,#1286,#1287);
#1138=AXIS2_PLACEMENT_3D('',#1644,#1290,#1291);
#1139=AXIS2_PLACEMENT_3D('',#1646,#1292,#1293);
#1140=AXIS2_PLACEMENT_3D('',#1649,#1295,#1296);
#1141=AXIS2_PLACEMENT_3D('',#1650,#1297,#1298);
#1142=AXIS2_PLACEMENT_3D('',#1652,#1299,#1300);
#1143=AXIS2_PLACEMENT_3D('',#1655,#1302,#1303);
#1144=AXIS2_PLACEMENT_3D('',#1656,#1304,#1305);
#1145=AXIS2_PLACEMENT_3D('',#1665,#1310,#1311);
#1146=AXIS2_PLACEMENT_3D('',#1671,#1315,#1316);
#1147=AXIS2_PLACEMENT_3D('',#1677,#1320,#1321);
#1148=AXIS2_PLACEMENT_3D('',#1680,#1324,#1325);
#1149=AXIS2_PLACEMENT_3D('',#1683,#1326,#1327);
#1150=AXIS2_PLACEMENT_3D('',#1685,#1328,#1329);
#1151=AXIS2_PLACEMENT_3D('',#1687,#1330,#1331);
#1152=AXIS2_PLACEMENT_3D('',#1688,#1332,#1333);
#1153=AXIS2_PLACEMENT_3D('',#1689,#1334,#1335);
#1154=AXIS2_PLACEMENT_3D('',#1691,#1336,#1337);
#1155=AXIS2_PLACEMENT_3D('',#1694,#1339,#1340);
#1156=AXIS2_PLACEMENT_3D('',#1695,#1341,#1342);
#1157=AXIS2_PLACEMENT_3D('',#1696,#1343,#1344);
#1158=AXIS2_PLACEMENT_3D('',#1697,#1345,#1346);
#1159=AXIS2_PLACEMENT_3D('',#1700,#1347,#1348);
#1160=AXIS2_PLACEMENT_3D('',#1702,#1349,#1350);
#1161=AXIS2_PLACEMENT_3D('',#1704,#1351,#1352);
#1162=AXIS2_PLACEMENT_3D('',#1705,#1353,#1354);
#1163=AXIS2_PLACEMENT_3D('',#1706,#1355,#1356);
#1164=AXIS2_PLACEMENT_3D('',#1708,#1357,#1358);
#1165=AXIS2_PLACEMENT_3D('',#1711,#1360,#1361);
#1166=AXIS2_PLACEMENT_3D('',#1712,#1362,#1363);
#1167=AXIS2_PLACEMENT_3D('',#1713,#1364,#1365);
#1168=AXIS2_PLACEMENT_3D('',#1714,#1366,#1367);
#1169=AXIS2_PLACEMENT_3D('',#1717,#1368,#1369);
#1170=AXIS2_PLACEMENT_3D('',#1719,#1370,#1371);
#1171=AXIS2_PLACEMENT_3D('',#1721,#1372,#1373);
#1172=AXIS2_PLACEMENT_3D('',#1722,#1374,#1375);
#1173=AXIS2_PLACEMENT_3D('',#1723,#1376,#1377);
#1174=AXIS2_PLACEMENT_3D('',#1725,#1378,#1379);
#1175=AXIS2_PLACEMENT_3D('',#1728,#1381,#1382);
#1176=AXIS2_PLACEMENT_3D('',#1729,#1383,#1384);
#1177=AXIS2_PLACEMENT_3D('',#1730,#1385,#1386);
#1178=AXIS2_PLACEMENT_3D('',#1731,#1387,#1388);
#1179=AXIS2_PLACEMENT_3D('',#1734,#1389,#1390);
#1180=AXIS2_PLACEMENT_3D('',#1736,#1391,#1392);
#1181=AXIS2_PLACEMENT_3D('',#1738,#1393,#1394);
#1182=AXIS2_PLACEMENT_3D('',#1739,#1395,#1396);
#1183=AXIS2_PLACEMENT_3D('',#1740,#1397,#1398);
#1184=AXIS2_PLACEMENT_3D('',#1742,#1399,#1400);
#1185=AXIS2_PLACEMENT_3D('',#1745,#1402,#1403);
#1186=AXIS2_PLACEMENT_3D('',#1746,#1404,#1405);
#1187=AXIS2_PLACEMENT_3D('',#1747,#1406,#1407);
#1188=AXIS2_PLACEMENT_3D('',#1748,#1408,#1409);
#1189=AXIS2_PLACEMENT_3D('',#1750,#1410,#1411);
#1190=AXIS2_PLACEMENT_3D('',#1753,#1413,#1414);
#1191=AXIS2_PLACEMENT_3D('',#1754,#1415,#1416);
#1192=AXIS2_PLACEMENT_3D('',#1755,#1417,#1418);
#1193=AXIS2_PLACEMENT_3D('',#1757,#1419,#1420);
#1194=AXIS2_PLACEMENT_3D('',#1758,#1421,#1422);
#1195=AXIS2_PLACEMENT_3D('',#1761,#1424,#1425);
#1196=AXIS2_PLACEMENT_3D('',#1762,#1426,#1427);
#1197=AXIS2_PLACEMENT_3D('',#1763,#1428,#1429);
#1198=AXIS2_PLACEMENT_3D('',#1765,#1430,#1431);
#1199=AXIS2_PLACEMENT_3D('',#1768,#1433,#1434);
#1200=AXIS2_PLACEMENT_3D('',#1769,#1435,#1436);
#1201=AXIS2_PLACEMENT_3D('',#1770,#1437,#1438);
#1202=AXIS2_PLACEMENT_3D('',#1772,#1439,#1440);
#1203=AXIS2_PLACEMENT_3D('',#1773,#1441,#1442);
#1204=AXIS2_PLACEMENT_3D('',#1776,#1444,#1445);
#1205=AXIS2_PLACEMENT_3D('',#1777,#1446,#1447);
#1206=AXIS2_PLACEMENT_3D('',#1778,#1448,#1449);
#1207=AXIS2_PLACEMENT_3D('',#1780,#1450,#1451);
#1208=AXIS2_PLACEMENT_3D('',#1781,#1452,#1453);
#1209=AXIS2_PLACEMENT_3D('',#1784,#1455,#1456);
#1210=AXIS2_PLACEMENT_3D('',#1785,#1457,#1458);
#1211=AXIS2_PLACEMENT_3D('',#1786,#1459,#1460);
#1212=AXIS2_PLACEMENT_3D('',#1788,#1461,#1462);
#1213=AXIS2_PLACEMENT_3D('',#1789,#1463,#1464);
#1214=AXIS2_PLACEMENT_3D('',#1792,#1466,#1467);
#1215=AXIS2_PLACEMENT_3D('',#1793,#1468,#1469);
#1216=AXIS2_PLACEMENT_3D('',#1794,#1470,#1471);
#1217=AXIS2_PLACEMENT_3D('',#1796,#1472,#1473);
#1218=AXIS2_PLACEMENT_3D('',#1799,#1475,#1476);
#1219=AXIS2_PLACEMENT_3D('',#1800,#1477,#1478);
#1220=AXIS2_PLACEMENT_3D('',#1801,#1479,#1480);
#1221=AXIS2_PLACEMENT_3D('',#1802,#1481,#1482);
#1222=AXIS2_PLACEMENT_3D('',#1804,#1483,#1484);
#1223=AXIS2_PLACEMENT_3D('',#1807,#1486,#1487);
#1224=AXIS2_PLACEMENT_3D('',#1808,#1488,#1489);
#1225=AXIS2_PLACEMENT_3D('',#1809,#1490,#1491);
#1226=AXIS2_PLACEMENT_3D('',#1810,#1492,#1493);
#1227=AXIS2_PLACEMENT_3D('',#1812,#1494,#1495);
#1228=AXIS2_PLACEMENT_3D('',#1815,#1497,#1498);
#1229=AXIS2_PLACEMENT_3D('',#1816,#1499,#1500);
#1230=AXIS2_PLACEMENT_3D('',#1817,#1501,#1502);
#1231=AXIS2_PLACEMENT_3D('',#1818,#1503,#1504);
#1232=AXIS2_PLACEMENT_3D('',#1820,#1505,#1506);
#1233=AXIS2_PLACEMENT_3D('',#1823,#1508,#1509);
#1234=AXIS2_PLACEMENT_3D('',#1824,#1510,#1511);
#1235=AXIS2_PLACEMENT_3D('',#1825,#1512,#1513);
#1236=AXIS2_PLACEMENT_3D('',#1827,#1514,#1515);
#1237=AXIS2_PLACEMENT_3D('',#1830,#1517,#1518);
#1238=AXIS2_PLACEMENT_3D('',#1831,#1519,#1520);
#1239=AXIS2_PLACEMENT_3D('',#1832,#1521,#1522);
#1240=AXIS2_PLACEMENT_3D('',#1833,#1523,#1524);
#1241=AXIS2_PLACEMENT_3D('',#1835,#1525,#1526);
#1242=AXIS2_PLACEMENT_3D('',#1838,#1528,#1529);
#1243=AXIS2_PLACEMENT_3D('',#1839,#1530,#1531);
#1244=AXIS2_PLACEMENT_3D('',#1840,#1532,#1533);
#1245=AXIS2_PLACEMENT_3D('',#1849,#1538,#1539);
#1246=AXIS2_PLACEMENT_3D('',#1855,#1543,#1544);
#1247=AXIS2_PLACEMENT_3D('',#1861,#1548,#1549);
#1248=AXIS2_PLACEMENT_3D('',#1864,#1552,#1553);
#1249=AXIS2_PLACEMENT_3D('',#1866,#1554,#1555);
#1250=AXIS2_PLACEMENT_3D('',#1869,#1557,#1558);
#1251=AXIS2_PLACEMENT_3D('',#1870,#1559,#1560);
#1252=AXIS2_PLACEMENT_3D('',#1872,#1561,#1562);
#1253=AXIS2_PLACEMENT_3D('',#1875,#1564,#1565);
#1254=AXIS2_PLACEMENT_3D('',#1876,#1566,#1567);
#1255=AXIS2_PLACEMENT_3D('',#1878,#1568,#1569);
#1256=AXIS2_PLACEMENT_3D('',#1881,#1571,#1572);
#1257=AXIS2_PLACEMENT_3D('',#1882,#1573,#1574);
#1258=AXIS2_PLACEMENT_3D('',#1891,#1579,#1580);
#1259=AXIS2_PLACEMENT_3D('',#1897,#1584,#1585);
#1260=AXIS2_PLACEMENT_3D('',#1901,#1588,#1589);
#1261=AXIS2_PLACEMENT_3D('',#1905,#1592,#1593);
#1262=AXIS2_PLACEMENT_3D('',#1907,#1595,#1596);
#1263=AXIS2_PLACEMENT_3D('',#1916,#1601,#1602);
#1264=AXIS2_PLACEMENT_3D('',#1922,#1606,#1607);
#1265=AXIS2_PLACEMENT_3D('',#1926,#1610,#1611);
#1266=AXIS2_PLACEMENT_3D('',#1930,#1614,#1615);
#1267=AXIS2_PLACEMENT_3D('',#1932,#1617,#1618);
#1268=DIRECTION('axis',(0.,0.,1.));
#1269=DIRECTION('refdir',(1.,0.,0.));
#1270=DIRECTION('center_axis',(0.,1.,0.));
#1271=DIRECTION('ref_axis',(1.,0.,0.));
#1272=DIRECTION('',(-1.,0.,0.));
#1273=DIRECTION('',(0.,0.,-1.));
#1274=DIRECTION('',(1.,0.,0.));
#1275=DIRECTION('',(0.,0.,-1.));
#1276=DIRECTION('center_axis',(-1.,0.,0.));
#1277=DIRECTION('ref_axis',(0.,1.,0.));
#1278=DIRECTION('',(0.,-1.,0.));
#1279=DIRECTION('',(0.,1.,0.));
#1280=DIRECTION('',(0.,0.,-1.));
#1281=DIRECTION('center_axis',(0.,-1.,0.));
#1282=DIRECTION('ref_axis',(-1.,0.,0.));
#1283=DIRECTION('',(1.,0.,0.));
#1284=DIRECTION('',(-1.,0.,0.));
#1285=DIRECTION('',(0.,0.,-1.));
#1286=DIRECTION('center_axis',(1.,0.,0.));
#1287=DIRECTION('ref_axis',(0.,-1.,0.));
#1288=DIRECTION('',(0.,1.,0.));
#1289=DIRECTION('',(0.,-1.,0.));
#1290=DIRECTION('center_axis',(0.,0.,-1.));
#1291=DIRECTION('ref_axis',(1.,0.,0.));
#1292=DIRECTION('center_axis',(0.,0.,-1.));
#1293=DIRECTION('ref_axis',(1.,0.,0.));
#1294=DIRECTION('',(0.,0.,-1.));
#1295=DIRECTION('center_axis',(0.,0.,1.));
#1296=DIRECTION('ref_axis',(1.,0.,0.));
#1297=DIRECTION('center_axis',(0.,0.,-1.));
#1298=DIRECTION('ref_axis',(1.,0.,0.));
#1299=DIRECTION('center_axis',(0.,0.,-1.));
#1300=DIRECTION('ref_axis',(1.,0.,0.));
#1301=DIRECTION('',(0.,0.,-1.));
#1302=DIRECTION('center_axis',(0.,0.,1.));
#1303=DIRECTION('ref_axis',(1.,0.,0.));
#1304=DIRECTION('center_axis',(0.,1.,0.));
#1305=DIRECTION('ref_axis',(1.,0.,0.));
#1306=DIRECTION('',(-1.,0.,0.));
#1307=DIRECTION('',(0.,0.,-1.));
#1308=DIRECTION('',(1.,0.,0.));
#1309=DIRECTION('',(0.,0.,-1.));
#1310=DIRECTION('center_axis',(-1.,0.,0.));
#1311=DIRECTION('ref_axis',(0.,1.,0.));
#1312=DIRECTION('',(0.,-1.,0.));
#1313=DIRECTION('',(0.,1.,0.));
#1314=DIRECTION('',(0.,0.,-1.));
#1315=DIRECTION('center_axis',(0.,-1.,0.));
#1316=DIRECTION('ref_axis',(-1.,0.,0.));
#1317=DIRECTION('',(1.,0.,0.));
#1318=DIRECTION('',(-1.,0.,0.));
#1319=DIRECTION('',(0.,0.,-1.));
#1320=DIRECTION('center_axis',(1.,0.,0.));
#1321=DIRECTION('ref_axis',(0.,-1.,0.));
#1322=DIRECTION('',(0.,1.,0.));
#1323=DIRECTION('',(0.,-1.,0.));
#1324=DIRECTION('center_axis',(0.,1.,0.));
#1325=DIRECTION('ref_axis',(1.,0.,0.));
#1326=DIRECTION('center_axis',(0.,1.,0.));
#1327=DIRECTION('ref_axis',(1.,0.,0.));
#1328=DIRECTION('center_axis',(0.,1.,0.));
#1329=DIRECTION('ref_axis',(1.,0.,0.));
#1330=DIRECTION('center_axis',(0.,-1.,0.));
#1331=DIRECTION('ref_axis',(1.,0.,0.));
#1332=DIRECTION('center_axis',(0.,1.,0.));
#1333=DIRECTION('ref_axis',(1.,0.,0.));
#1334=DIRECTION('center_axis',(0.,1.,0.));
#1335=DIRECTION('ref_axis',(1.,0.,0.));
#1336=DIRECTION('center_axis',(0.,1.,0.));
#1337=DIRECTION('ref_axis',(1.,0.,0.));
#1338=DIRECTION('',(0.,1.,0.));
#1339=DIRECTION('center_axis',(0.,-1.,0.));
#1340=DIRECTION('ref_axis',(1.,0.,0.));
#1341=DIRECTION('center_axis',(0.,-1.,0.));
#1342=DIRECTION('ref_axis',(1.,0.,0.));
#1343=DIRECTION('center_axis',(0.,-1.,0.));
#1344=DIRECTION('ref_axis',(1.,0.,0.));
#1345=DIRECTION('center_axis',(0.,1.,0.));
#1346=DIRECTION('ref_axis',(1.,0.,0.));
#1347=DIRECTION('center_axis',(0.,1.,0.));
#1348=DIRECTION('ref_axis',(1.,0.,0.));
#1349=DIRECTION('center_axis',(0.,1.,0.));
#1350=DIRECTION('ref_axis',(1.,0.,0.));
#1351=DIRECTION('center_axis',(0.,-1.,0.));
#1352=DIRECTION('ref_axis',(1.,0.,0.));
#1353=DIRECTION('center_axis',(0.,1.,0.));
#1354=DIRECTION('ref_axis',(1.,0.,0.));
#1355=DIRECTION('center_axis',(0.,1.,0.));
#1356=DIRECTION('ref_axis',(1.,0.,0.));
#1357=DIRECTION('center_axis',(0.,1.,0.));
#1358=DIRECTION('ref_axis',(1.,0.,0.));
#1359=DIRECTION('',(0.,1.,0.));
#1360=DIRECTION('center_axis',(0.,-1.,0.));
#1361=DIRECTION('ref_axis',(1.,0.,0.));
#1362=DIRECTION('center_axis',(0.,-1.,0.));
#1363=DIRECTION('ref_axis',(1.,0.,0.));
#1364=DIRECTION('center_axis',(0.,-1.,0.));
#1365=DIRECTION('ref_axis',(1.,0.,0.));
#1366=DIRECTION('center_axis',(0.,1.,0.));
#1367=DIRECTION('ref_axis',(1.,0.,0.));
#1368=DIRECTION('center_axis',(0.,1.,0.));
#1369=DIRECTION('ref_axis',(1.,0.,0.));
#1370=DIRECTION('center_axis',(0.,1.,0.));
#1371=DIRECTION('ref_axis',(1.,0.,0.));
#1372=DIRECTION('center_axis',(0.,-1.,0.));
#1373=DIRECTION('ref_axis',(1.,0.,0.));
#1374=DIRECTION('center_axis',(0.,1.,0.));
#1375=DIRECTION('ref_axis',(1.,0.,0.));
#1376=DIRECTION('center_axis',(0.,1.,0.));
#1377=DIRECTION('ref_axis',(1.,0.,0.));
#1378=DIRECTION('center_axis',(0.,1.,0.));
#1379=DIRECTION('ref_axis',(1.,0.,0.));
#1380=DIRECTION('',(0.,1.,0.));
#1381=DIRECTION('center_axis',(0.,-1.,0.));
#1382=DIRECTION('ref_axis',(1.,0.,0.));
#1383=DIRECTION('center_axis',(0.,-1.,0.));
#1384=DIRECTION('ref_axis',(1.,0.,0.));
#1385=DIRECTION('center_axis',(0.,-1.,0.));
#1386=DIRECTION('ref_axis',(1.,0.,0.));
#1387=DIRECTION('center_axis',(0.,1.,0.));
#1388=DIRECTION('ref_axis',(1.,0.,0.));
#1389=DIRECTION('center_axis',(0.,1.,0.));
#1390=DIRECTION('ref_axis',(1.,0.,0.));
#1391=DIRECTION('center_axis',(0.,1.,0.));
#1392=DIRECTION('ref_axis',(1.,0.,0.));
#1393=DIRECTION('center_axis',(0.,-1.,0.));
#1394=DIRECTION('ref_axis',(1.,0.,0.));
#1395=DIRECTION('center_axis',(0.,1.,0.));
#1396=DIRECTION('ref_axis',(1.,0.,0.));
#1397=DIRECTION('center_axis',(0.,1.,0.));
#1398=DIRECTION('ref_axis',(1.,0.,0.));
#1399=DIRECTION('center_axis',(0.,1.,0.));
#1400=DIRECTION('ref_axis',(1.,0.,0.));
#1401=DIRECTION('',(0.,1.,0.));
#1402=DIRECTION('center_axis',(0.,-1.,0.));
#1403=DIRECTION('ref_axis',(1.,0.,0.));
#1404=DIRECTION('center_axis',(0.,-1.,0.));
#1405=DIRECTION('ref_axis',(1.,0.,0.));
#1406=DIRECTION('center_axis',(0.,-1.,0.));
#1407=DIRECTION('ref_axis',(1.,0.,0.));
#1408=DIRECTION('center_axis',(0.,1.,0.));
#1409=DIRECTION('ref_axis',(1.,0.,0.));
#1410=DIRECTION('center_axis',(0.,1.,0.));
#1411=DIRECTION('ref_axis',(1.,0.,0.));
#1412=DIRECTION('',(0.,1.,0.));
#1413=DIRECTION('center_axis',(0.,-1.,0.));
#1414=DIRECTION('ref_axis',(1.,0.,0.));
#1415=DIRECTION('center_axis',(0.,1.,0.));
#1416=DIRECTION('ref_axis',(1.,0.,0.));
#1417=DIRECTION('center_axis',(0.,1.,0.));
#1418=DIRECTION('ref_axis',(1.,0.,0.));
#1419=DIRECTION('center_axis',(0.,1.,0.));
#1420=DIRECTION('ref_axis',(1.,0.,0.));
#1421=DIRECTION('center_axis',(0.,1.,0.));
#1422=DIRECTION('ref_axis',(1.,0.,0.));
#1423=DIRECTION('',(0.,1.,0.));
#1424=DIRECTION('center_axis',(0.,-1.,0.));
#1425=DIRECTION('ref_axis',(1.,0.,0.));
#1426=DIRECTION('center_axis',(0.,1.,0.));
#1427=DIRECTION('ref_axis',(1.,0.,0.));
#1428=DIRECTION('center_axis',(0.,1.,0.));
#1429=DIRECTION('ref_axis',(1.,0.,0.));
#1430=DIRECTION('center_axis',(0.,1.,0.));
#1431=DIRECTION('ref_axis',(1.,0.,0.));
#1432=DIRECTION('',(0.,1.,0.));
#1433=DIRECTION('center_axis',(0.,-1.,0.));
#1434=DIRECTION('ref_axis',(1.,0.,0.));
#1435=DIRECTION('center_axis',(0.,1.,0.));
#1436=DIRECTION('ref_axis',(1.,0.,0.));
#1437=DIRECTION('center_axis',(0.,1.,0.));
#1438=DIRECTION('ref_axis',(1.,0.,0.));
#1439=DIRECTION('center_axis',(0.,1.,0.));
#1440=DIRECTION('ref_axis',(1.,0.,0.));
#1441=DIRECTION('center_axis',(0.,1.,0.));
#1442=DIRECTION('ref_axis',(1.,0.,0.));
#1443=DIRECTION('',(0.,1.,0.));
#1444=DIRECTION('center_axis',(0.,-1.,0.));
#1445=DIRECTION('ref_axis',(1.,0.,0.));
#1446=DIRECTION('center_axis',(0.,1.,0.));
#1447=DIRECTION('ref_axis',(1.,0.,0.));
#1448=DIRECTION('center_axis',(0.,1.,0.));
#1449=DIRECTION('ref_axis',(1.,0.,0.));
#1450=DIRECTION('center_axis',(0.,1.,0.));
#1451=DIRECTION('ref_axis',(1.,0.,0.));
#1452=DIRECTION('center_axis',(0.,1.,0.));
#1453=DIRECTION('ref_axis',(1.,0.,0.));
#1454=DIRECTION('',(0.,1.,0.));
#1455=DIRECTION('center_axis',(0.,-1.,0.));
#1456=DIRECTION('ref_axis',(1.,0.,0.));
#1457=DIRECTION('center_axis',(0.,1.,0.));
#1458=DIRECTION('ref_axis',(1.,0.,0.));
#1459=DIRECTION('center_axis',(0.,1.,0.));
#1460=DIRECTION('ref_axis',(1.,0.,0.));
#1461=DIRECTION('center_axis',(0.,1.,0.));
#1462=DIRECTION('ref_axis',(1.,0.,0.));
#1463=DIRECTION('center_axis',(0.,1.,0.));
#1464=DIRECTION('ref_axis',(1.,0.,0.));
#1465=DIRECTION('',(0.,1.,0.));
#1466=DIRECTION('center_axis',(0.,-1.,0.));
#1467=DIRECTION('ref_axis',(1.,0.,0.));
#1468=DIRECTION('center_axis',(0.,1.,0.));
#1469=DIRECTION('ref_axis',(1.,0.,0.));
#1470=DIRECTION('center_axis',(0.,1.,0.));
#1471=DIRECTION('ref_axis',(1.,0.,0.));
#1472=DIRECTION('center_axis',(0.,1.,0.));
#1473=DIRECTION('ref_axis',(1.,0.,0.));
#1474=DIRECTION('',(0.,-1.,0.));
#1475=DIRECTION('center_axis',(0.,-1.,0.));
#1476=DIRECTION('ref_axis',(1.,0.,0.));
#1477=DIRECTION('center_axis',(0.,-1.,0.));
#1478=DIRECTION('ref_axis',(1.,0.,0.));
#1479=DIRECTION('center_axis',(0.,1.,0.));
#1480=DIRECTION('ref_axis',(1.,0.,0.));
#1481=DIRECTION('center_axis',(0.,1.,0.));
#1482=DIRECTION('ref_axis',(1.,0.,0.));
#1483=DIRECTION('center_axis',(0.,1.,0.));
#1484=DIRECTION('ref_axis',(1.,0.,0.));
#1485=DIRECTION('',(0.,-1.,0.));
#1486=DIRECTION('center_axis',(0.,-1.,0.));
#1487=DIRECTION('ref_axis',(1.,0.,0.));
#1488=DIRECTION('center_axis',(0.,-1.,0.));
#1489=DIRECTION('ref_axis',(1.,0.,0.));
#1490=DIRECTION('center_axis',(0.,1.,0.));
#1491=DIRECTION('ref_axis',(1.,0.,0.));
#1492=DIRECTION('center_axis',(0.,1.,0.));
#1493=DIRECTION('ref_axis',(1.,0.,0.));
#1494=DIRECTION('center_axis',(0.,1.,0.));
#1495=DIRECTION('ref_axis',(1.,0.,0.));
#1496=DIRECTION('',(0.,-1.,0.));
#1497=DIRECTION('center_axis',(0.,-1.,0.));
#1498=DIRECTION('ref_axis',(1.,0.,0.));
#1499=DIRECTION('center_axis',(0.,-1.,0.));
#1500=DIRECTION('ref_axis',(1.,0.,0.));
#1501=DIRECTION('center_axis',(0.,1.,0.));
#1502=DIRECTION('ref_axis',(1.,0.,0.));
#1503=DIRECTION('center_axis',(0.,1.,0.));
#1504=DIRECTION('ref_axis',(1.,0.,0.));
#1505=DIRECTION('center_axis',(0.,1.,0.));
#1506=DIRECTION('ref_axis',(1.,0.,0.));
#1507=DIRECTION('',(0.,-1.,0.));
#1508=DIRECTION('center_axis',(0.,-1.,0.));
#1509=DIRECTION('ref_axis',(1.,0.,0.));
#1510=DIRECTION('center_axis',(0.,1.,0.));
#1511=DIRECTION('ref_axis',(1.,0.,0.));
#1512=DIRECTION('center_axis',(0.,1.,0.));
#1513=DIRECTION('ref_axis',(1.,0.,0.));
#1514=DIRECTION('center_axis',(0.,1.,0.));
#1515=DIRECTION('ref_axis',(1.,0.,0.));
#1516=DIRECTION('',(0.,-1.,0.));
#1517=DIRECTION('center_axis',(0.,-1.,0.));
#1518=DIRECTION('ref_axis',(1.,0.,0.));
#1519=DIRECTION('center_axis',(0.,-1.,0.));
#1520=DIRECTION('ref_axis',(1.,0.,0.));
#1521=DIRECTION('center_axis',(0.,1.,0.));
#1522=DIRECTION('ref_axis',(1.,0.,0.));
#1523=DIRECTION('center_axis',(0.,1.,0.));
#1524=DIRECTION('ref_axis',(1.,0.,0.));
#1525=DIRECTION('center_axis',(0.,1.,0.));
#1526=DIRECTION('ref_axis',(1.,0.,0.));
#1527=DIRECTION('',(0.,-1.,0.));
#1528=DIRECTION('center_axis',(0.,-1.,0.));
#1529=DIRECTION('ref_axis',(1.,0.,0.));
#1530=DIRECTION('center_axis',(0.,1.,0.));
#1531=DIRECTION('ref_axis',(1.,0.,0.));
#1532=DIRECTION('center_axis',(0.,-1.,0.));
#1533=DIRECTION('ref_axis',(0.,0.,-1.));
#1534=DIRECTION('',(0.,0.,1.));
#1535=DIRECTION('',(1.,0.,0.));
#1536=DIRECTION('',(0.,0.,-1.));
#1537=DIRECTION('',(1.,0.,0.));
#1538=DIRECTION('center_axis',(0.,0.,1.));
#1539=DIRECTION('ref_axis',(0.,-1.,0.));
#1540=DIRECTION('',(0.,1.,0.));
#1541=DIRECTION('',(0.,-1.,0.));
#1542=DIRECTION('',(1.,0.,0.));
#1543=DIRECTION('center_axis',(0.,1.,0.));
#1544=DIRECTION('ref_axis',(0.,0.,1.));
#1545=DIRECTION('',(0.,0.,-1.));
#1546=DIRECTION('',(0.,0.,1.));
#1547=DIRECTION('',(1.,0.,0.));
#1548=DIRECTION('center_axis',(0.,0.,-1.));
#1549=DIRECTION('ref_axis',(0.,1.,0.));
#1550=DIRECTION('',(0.,-1.,0.));
#1551=DIRECTION('',(0.,1.,0.));
#1552=DIRECTION('center_axis',(0.,0.,1.));
#1553=DIRECTION('ref_axis',(1.,0.,0.));
#1554=DIRECTION('center_axis',(0.,0.,1.));
#1555=DIRECTION('ref_axis',(1.,0.,0.));
#1556=DIRECTION('',(0.,0.,1.));
#1557=DIRECTION('center_axis',(0.,0.,-1.));
#1558=DIRECTION('ref_axis',(1.,0.,0.));
#1559=DIRECTION('center_axis',(0.,0.,1.));
#1560=DIRECTION('ref_axis',(1.,0.,0.));
#1561=DIRECTION('center_axis',(0.,0.,1.));
#1562=DIRECTION('ref_axis',(1.,0.,0.));
#1563=DIRECTION('',(0.,0.,1.));
#1564=DIRECTION('center_axis',(0.,0.,-1.));
#1565=DIRECTION('ref_axis',(1.,0.,0.));
#1566=DIRECTION('center_axis',(0.,0.,1.));
#1567=DIRECTION('ref_axis',(1.,0.,0.));
#1568=DIRECTION('center_axis',(0.,0.,1.));
#1569=DIRECTION('ref_axis',(1.,0.,0.));
#1570=DIRECTION('',(0.,0.,1.));
#1571=DIRECTION('center_axis',(0.,0.,-1.));
#1572=DIRECTION('ref_axis',(1.,0.,0.));
#1573=DIRECTION('center_axis',(0.,0.,1.));
#1574=DIRECTION('ref_axis',(1.,0.,0.));
#1575=DIRECTION('',(-0.992876838486922,-0.119145220618431,0.));
#1576=DIRECTION('',(0.,1.,0.));
#1577=DIRECTION('',(1.,0.,0.));
#1578=DIRECTION('',(0.,-1.,0.));
#1579=DIRECTION('center_axis',(-1.,0.,0.));
#1580=DIRECTION('ref_axis',(0.,1.,0.));
#1581=DIRECTION('',(0.,0.,-1.));
#1582=DIRECTION('',(0.,0.,1.));
#1583=DIRECTION('',(0.,-1.,0.));
#1584=DIRECTION('center_axis',(0.,-1.,0.));
#1585=DIRECTION('ref_axis',(-1.,0.,0.));
#1586=DIRECTION('',(0.,0.,1.));
#1587=DIRECTION('',(1.,0.,0.));
#1588=DIRECTION('center_axis',(1.,0.,0.));
#1589=DIRECTION('ref_axis',(0.,-1.,0.));
#1590=DIRECTION('',(0.,0.,1.));
#1591=DIRECTION('',(0.,1.,0.));
#1592=DIRECTION('center_axis',(0.,0.,-1.));
#1593=DIRECTION('ref_axis',(-1.,0.,0.));
#1594=DIRECTION('',(0.992876838486922,0.119145220618431,0.));
#1595=DIRECTION('center_axis',(0.,0.,1.));
#1596=DIRECTION('ref_axis',(1.,0.,0.));
#1597=DIRECTION('',(-0.992876838486922,-0.119145220618431,0.));
#1598=DIRECTION('',(0.,-1.,0.));
#1599=DIRECTION('',(1.,0.,0.));
#1600=DIRECTION('',(0.,1.,0.));
#1601=DIRECTION('center_axis',(-1.,0.,0.));
#1602=DIRECTION('ref_axis',(0.,1.,0.));
#1603=DIRECTION('',(0.,0.,1.));
#1604=DIRECTION('',(0.,1.,0.));
#1605=DIRECTION('',(0.,0.,-1.));
#1606=DIRECTION('center_axis',(0.,-1.,0.));
#1607=DIRECTION('ref_axis',(-1.,0.,0.));
#1608=DIRECTION('',(-1.,0.,0.));
#1609=DIRECTION('',(0.,0.,-1.));
#1610=DIRECTION('center_axis',(1.,0.,0.));
#1611=DIRECTION('ref_axis',(0.,-1.,0.));
#1612=DIRECTION('',(0.,-1.,0.));
#1613=DIRECTION('',(0.,0.,-1.));
#1614=DIRECTION('center_axis',(-0.119145220618431,0.992876838486922,0.));
#1615=DIRECTION('ref_axis',(0.992876838486922,0.119145220618431,0.));
#1616=DIRECTION('',(0.992876838486922,0.119145220618431,0.));
#1617=DIRECTION('center_axis',(0.,0.,-1.));
#1618=DIRECTION('ref_axis',(-1.,0.,0.));
#1619=CARTESIAN_POINT('',(0.,0.,0.));
#1620=CARTESIAN_POINT('Origin',(76.6,23.65,90.));
#1621=CARTESIAN_POINT('',(87.4,23.65,87.));
#1622=CARTESIAN_POINT('',(76.6,23.65,87.));
#1623=CARTESIAN_POINT('',(63.3,23.65,87.));
#1624=CARTESIAN_POINT('',(87.4,23.65,90.));
#1625=CARTESIAN_POINT('',(87.4,23.65,90.));
#1626=CARTESIAN_POINT('',(76.6,23.65,90.));
#1627=CARTESIAN_POINT('',(63.3,23.65,90.));
#1628=CARTESIAN_POINT('',(76.6,23.65,90.));
#1629=CARTESIAN_POINT('Origin',(76.6,18.35,90.));
#1630=CARTESIAN_POINT('',(76.6,18.35,87.));
#1631=CARTESIAN_POINT('',(76.6,19.675,87.));
#1632=CARTESIAN_POINT('',(76.6,18.35,90.));
#1633=CARTESIAN_POINT('',(76.6,19.675,90.));
#1634=CARTESIAN_POINT('',(76.6,18.35,90.));
#1635=CARTESIAN_POINT('Origin',(87.4,18.35,90.));
#1636=CARTESIAN_POINT('',(87.4,18.35,87.));
#1637=CARTESIAN_POINT('',(68.7,18.35,87.));
#1638=CARTESIAN_POINT('',(87.4,18.35,90.));
#1639=CARTESIAN_POINT('',(68.7,18.35,90.));
#1640=CARTESIAN_POINT('',(87.4,18.35,90.));
#1641=CARTESIAN_POINT('Origin',(87.4,23.65,90.));
#1642=CARTESIAN_POINT('',(87.4,22.325,87.));
#1643=CARTESIAN_POINT('',(87.4,22.325,90.));
#1644=CARTESIAN_POINT('Origin',(60.,21.,90.));
#1645=CARTESIAN_POINT('',(54.6,21.,90.));
#1646=CARTESIAN_POINT('Origin',(60.,21.,90.));
#1647=CARTESIAN_POINT('',(54.6,21.,87.));
#1648=CARTESIAN_POINT('',(54.6,21.,90.));
#1649=CARTESIAN_POINT('Origin',(60.,21.,87.));
#1650=CARTESIAN_POINT('Origin',(38.,21.,90.));
#1651=CARTESIAN_POINT('',(32.6,21.,90.));
#1652=CARTESIAN_POINT('Origin',(38.,21.,90.));
#1653=CARTESIAN_POINT('',(32.6,21.,87.));
#1654=CARTESIAN_POINT('',(32.6,21.,90.));
#1655=CARTESIAN_POINT('Origin',(38.,21.,87.));
#1656=CARTESIAN_POINT('Origin',(9.6,23.65,90.));
#1657=CARTESIAN_POINT('',(20.4,23.65,87.));
#1658=CARTESIAN_POINT('',(9.6,23.65,87.));
#1659=CARTESIAN_POINT('',(29.8,23.65,87.));
#1660=CARTESIAN_POINT('',(20.4,23.65,90.));
#1661=CARTESIAN_POINT('',(20.4,23.65,90.));
#1662=CARTESIAN_POINT('',(9.6,23.65,90.));
#1663=CARTESIAN_POINT('',(29.8,23.65,90.));
#1664=CARTESIAN_POINT('',(9.6,23.65,90.));
#1665=CARTESIAN_POINT('Origin',(9.6,18.35,90.));
#1666=CARTESIAN_POINT('',(9.6,18.35,87.));
#1667=CARTESIAN_POINT('',(9.6,19.675,87.));
#1668=CARTESIAN_POINT('',(9.6,18.35,90.));
#1669=CARTESIAN_POINT('',(9.6,19.675,90.));
#1670=CARTESIAN_POINT('',(9.6,18.35,90.));
#1671=CARTESIAN_POINT('Origin',(20.4,18.35,90.));
#1672=CARTESIAN_POINT('',(20.4,18.35,87.));
#1673=CARTESIAN_POINT('',(35.2,18.35,87.));
#1674=CARTESIAN_POINT('',(20.4,18.35,90.));
#1675=CARTESIAN_POINT('',(35.2,18.35,90.));
#1676=CARTESIAN_POINT('',(20.4,18.35,90.));
#1677=CARTESIAN_POINT('Origin',(20.4,23.65,90.));
#1678=CARTESIAN_POINT('',(20.4,22.325,87.));
#1679=CARTESIAN_POINT('',(20.4,22.325,90.));
#1680=CARTESIAN_POINT('Origin',(90.,3.,80.));
#1681=CARTESIAN_POINT('',(86.9523321507681,3.,76.099458924616));
#1682=CARTESIAN_POINT('',(88.7081678492319,3.,75.221541075384));
#1683=CARTESIAN_POINT('Origin',(87.,3.,74.));
#1684=CARTESIAN_POINT('',(89.8088670874529,3.,75.0536914562736));
#1685=CARTESIAN_POINT('Origin',(90.,3.,80.));
#1686=CARTESIAN_POINT('',(86.1576329125471,3.,76.8793085437265));
#1687=CARTESIAN_POINT('Origin',(87.,3.,74.));
#1688=CARTESIAN_POINT('Origin',(90.,3.,80.));
#1689=CARTESIAN_POINT('Origin',(90.,0.,80.));
#1690=CARTESIAN_POINT('',(85.05,0.,80.));
#1691=CARTESIAN_POINT('Origin',(90.,0.,80.));
#1692=CARTESIAN_POINT('',(85.05,3.,80.));
#1693=CARTESIAN_POINT('',(85.05,0.,80.));
#1694=CARTESIAN_POINT('Origin',(90.,3.,80.));
#1695=CARTESIAN_POINT('Origin',(90.,3.,80.));
#1696=CARTESIAN_POINT('Origin',(90.,3.,80.));
#1697=CARTESIAN_POINT('Origin',(10.,3.,-80.));
#1698=CARTESIAN_POINT('',(13.0476678492319,3.,-76.099458924616));
#1699=CARTESIAN_POINT('',(11.2918321507681,3.,-75.221541075384));
#1700=CARTESIAN_POINT('Origin',(13.,3.,-74.));
#1701=CARTESIAN_POINT('',(10.1911329125471,3.,-75.0536914562736));
#1702=CARTESIAN_POINT('Origin',(10.,3.,-80.));
#1703=CARTESIAN_POINT('',(13.8423670874529,3.,-76.8793085437265));
#1704=CARTESIAN_POINT('Origin',(13.,3.,-74.));
#1705=CARTESIAN_POINT('Origin',(10.,3.,-80.));
#1706=CARTESIAN_POINT('Origin',(10.,0.,-80.));
#1707=CARTESIAN_POINT('',(5.05,0.,-80.));
#1708=CARTESIAN_POINT('Origin',(10.,0.,-80.));
#1709=CARTESIAN_POINT('',(5.05,3.,-80.));
#1710=CARTESIAN_POINT('',(5.05,0.,-80.));
#1711=CARTESIAN_POINT('Origin',(10.,3.,-80.));
#1712=CARTESIAN_POINT('Origin',(10.,3.,-80.));
#1713=CARTESIAN_POINT('Origin',(10.,3.,-80.));
#1714=CARTESIAN_POINT('Origin',(10.,3.,80.));
#1715=CARTESIAN_POINT('',(11.2918321507681,3.,75.221541075384));
#1716=CARTESIAN_POINT('',(13.0476678492319,3.,76.099458924616));
#1717=CARTESIAN_POINT('Origin',(13.,3.,74.));
#1718=CARTESIAN_POINT('',(13.8423670874529,3.,76.8793085437265));
#1719=CARTESIAN_POINT('Origin',(10.,3.,80.));
#1720=CARTESIAN_POINT('',(10.1911329125471,3.,75.0536914562736));
#1721=CARTESIAN_POINT('Origin',(13.,3.,74.));
#1722=CARTESIAN_POINT('Origin',(10.,3.,80.));
#1723=CARTESIAN_POINT('Origin',(10.,0.,80.));
#1724=CARTESIAN_POINT('',(5.05,0.,80.));
#1725=CARTESIAN_POINT('Origin',(10.,0.,80.));
#1726=CARTESIAN_POINT('',(5.05,3.,80.));
#1727=CARTESIAN_POINT('',(5.05,0.,80.));
#1728=CARTESIAN_POINT('Origin',(10.,3.,80.));
#1729=CARTESIAN_POINT('Origin',(10.,3.,80.));
#1730=CARTESIAN_POINT('Origin',(10.,3.,80.));
#1731=CARTESIAN_POINT('Origin',(90.,3.,-80.));
#1732=CARTESIAN_POINT('',(88.7081678492319,3.,-75.221541075384));
#1733=CARTESIAN_POINT('',(86.9523321507681,3.,-76.099458924616));
#1734=CARTESIAN_POINT('Origin',(87.,3.,-74.));
#1735=CARTESIAN_POINT('',(86.1576329125471,3.,-76.8793085437265));
#1736=CARTESIAN_POINT('Origin',(90.,3.,-80.));
#1737=CARTESIAN_POINT('',(89.8088670874529,3.,-75.0536914562736));
#1738=CARTESIAN_POINT('Origin',(87.,3.,-74.));
#1739=CARTESIAN_POINT('Origin',(90.,3.,-80.));
#1740=CARTESIAN_POINT('Origin',(90.,0.,-80.));
#1741=CARTESIAN_POINT('',(85.05,0.,-80.));
#1742=CARTESIAN_POINT('Origin',(90.,0.,-80.));
#1743=CARTESIAN_POINT('',(85.05,3.,-80.));
#1744=CARTESIAN_POINT('',(85.05,0.,-80.));
#1745=CARTESIAN_POINT('Origin',(90.,3.,-80.));
#1746=CARTESIAN_POINT('Origin',(90.,3.,-80.));
#1747=CARTESIAN_POINT('Origin',(90.,3.,-80.));
#1748=CARTESIAN_POINT('Origin',(87.,3.,0.));
#1749=CARTESIAN_POINT('',(84.9,3.,2.57175827820945E-16));
#1750=CARTESIAN_POINT('Origin',(87.,3.,0.));
#1751=CARTESIAN_POINT('',(84.9,8.,-2.57175827820945E-16));
#1752=CARTESIAN_POINT('',(84.9,3.,2.57175827820945E-16));
#1753=CARTESIAN_POINT('Origin',(87.,8.,0.));
#1754=CARTESIAN_POINT('Origin',(87.,3.,0.));
#1755=CARTESIAN_POINT('Origin',(13.,3.,74.));
#1756=CARTESIAN_POINT('',(10.9,3.,74.));
#1757=CARTESIAN_POINT('Origin',(13.,3.,74.));
#1758=CARTESIAN_POINT('Origin',(13.,3.,74.));
#1759=CARTESIAN_POINT('',(10.9,8.,74.));
#1760=CARTESIAN_POINT('',(10.9,3.,74.));
#1761=CARTESIAN_POINT('Origin',(13.,8.,74.));
#1762=CARTESIAN_POINT('Origin',(13.,3.,74.));
#1763=CARTESIAN_POINT('Origin',(13.,3.,0.));
#1764=CARTESIAN_POINT('',(10.9,3.,2.57175827820944E-16));
#1765=CARTESIAN_POINT('Origin',(13.,3.,0.));
#1766=CARTESIAN_POINT('',(10.9,8.,-2.57175827820944E-16));
#1767=CARTESIAN_POINT('',(10.9,3.,2.57175827820944E-16));
#1768=CARTESIAN_POINT('Origin',(13.,8.,0.));
#1769=CARTESIAN_POINT('Origin',(13.,3.,0.));
#1770=CARTESIAN_POINT('Origin',(13.,3.,-74.));
#1771=CARTESIAN_POINT('',(10.9,3.,-74.));
#1772=CARTESIAN_POINT('Origin',(13.,3.,-74.));
#1773=CARTESIAN_POINT('Origin',(13.,3.,-74.));
#1774=CARTESIAN_POINT('',(10.9,8.,-74.));
#1775=CARTESIAN_POINT('',(10.9,3.,-74.));
#1776=CARTESIAN_POINT('Origin',(13.,8.,-74.));
#1777=CARTESIAN_POINT('Origin',(13.,3.,-74.));
#1778=CARTESIAN_POINT('Origin',(87.,3.,74.));
#1779=CARTESIAN_POINT('',(84.9,3.,74.));
#1780=CARTESIAN_POINT('Origin',(87.,3.,74.));
#1781=CARTESIAN_POINT('Origin',(87.,3.,74.));
#1782=CARTESIAN_POINT('',(84.9,8.,74.));
#1783=CARTESIAN_POINT('',(84.9,3.,74.));
#1784=CARTESIAN_POINT('Origin',(87.,8.,74.));
#1785=CARTESIAN_POINT('Origin',(87.,3.,74.));
#1786=CARTESIAN_POINT('Origin',(87.,3.,-74.));
#1787=CARTESIAN_POINT('',(84.9,3.,-74.));
#1788=CARTESIAN_POINT('Origin',(87.,3.,-74.));
#1789=CARTESIAN_POINT('Origin',(87.,3.,-74.));
#1790=CARTESIAN_POINT('',(84.9,8.,-74.));
#1791=CARTESIAN_POINT('',(84.9,3.,-74.));
#1792=CARTESIAN_POINT('Origin',(87.,8.,-74.));
#1793=CARTESIAN_POINT('Origin',(87.,3.,-74.));
#1794=CARTESIAN_POINT('Origin',(87.,3.,-74.));
#1795=CARTESIAN_POINT('',(84.,8.,-74.));
#1796=CARTESIAN_POINT('Origin',(87.,8.,-74.));
#1797=CARTESIAN_POINT('',(84.,3.,-74.));
#1798=CARTESIAN_POINT('',(84.,3.,-74.));
#1799=CARTESIAN_POINT('Origin',(87.,3.,-74.));
#1800=CARTESIAN_POINT('Origin',(87.,3.,-74.));
#1801=CARTESIAN_POINT('Origin',(87.,8.,-74.));
#1802=CARTESIAN_POINT('Origin',(87.,3.,74.));
#1803=CARTESIAN_POINT('',(84.,8.,74.));
#1804=CARTESIAN_POINT('Origin',(87.,8.,74.));
#1805=CARTESIAN_POINT('',(84.,3.,74.));
#1806=CARTESIAN_POINT('',(84.,3.,74.));
#1807=CARTESIAN_POINT('Origin',(87.,3.,74.));
#1808=CARTESIAN_POINT('Origin',(87.,3.,74.));
#1809=CARTESIAN_POINT('Origin',(87.,8.,74.));
#1810=CARTESIAN_POINT('Origin',(13.,3.,-74.));
#1811=CARTESIAN_POINT('',(10.,8.,-74.));
#1812=CARTESIAN_POINT('Origin',(13.,8.,-74.));
#1813=CARTESIAN_POINT('',(10.,3.,-74.));
#1814=CARTESIAN_POINT('',(10.,3.,-74.));
#1815=CARTESIAN_POINT('Origin',(13.,3.,-74.));
#1816=CARTESIAN_POINT('Origin',(13.,3.,-74.));
#1817=CARTESIAN_POINT('Origin',(13.,8.,-74.));
#1818=CARTESIAN_POINT('Origin',(13.,3.,0.));
#1819=CARTESIAN_POINT('',(10.,8.,3.67394039744206E-16));
#1820=CARTESIAN_POINT('Origin',(13.,8.,0.));
#1821=CARTESIAN_POINT('',(10.,3.,3.67394039744206E-16));
#1822=CARTESIAN_POINT('',(10.,3.,3.67394039744206E-16));
#1823=CARTESIAN_POINT('Origin',(13.,3.,0.));
#1824=CARTESIAN_POINT('Origin',(13.,8.,0.));
#1825=CARTESIAN_POINT('Origin',(13.,3.,74.));
#1826=CARTESIAN_POINT('',(10.,8.,74.));
#1827=CARTESIAN_POINT('Origin',(13.,8.,74.));
#1828=CARTESIAN_POINT('',(10.,3.,74.));
#1829=CARTESIAN_POINT('',(10.,3.,74.));
#1830=CARTESIAN_POINT('Origin',(13.,3.,74.));
#1831=CARTESIAN_POINT('Origin',(13.,3.,74.));
#1832=CARTESIAN_POINT('Origin',(13.,8.,74.));
#1833=CARTESIAN_POINT('Origin',(87.,3.,0.));
#1834=CARTESIAN_POINT('',(84.,8.,3.67394039744207E-16));
#1835=CARTESIAN_POINT('Origin',(87.,8.,0.));
#1836=CARTESIAN_POINT('',(84.,3.,3.67394039744207E-16));
#1837=CARTESIAN_POINT('',(84.,3.,3.67394039744207E-16));
#1838=CARTESIAN_POINT('Origin',(87.,3.,0.));
#1839=CARTESIAN_POINT('Origin',(87.,8.,0.));
#1840=CARTESIAN_POINT('Origin',(0.,10.85,7.15));
#1841=CARTESIAN_POINT('',(3.,10.85,-7.15));
#1842=CARTESIAN_POINT('',(3.,10.85,7.15));
#1843=CARTESIAN_POINT('',(3.,10.85,3.575));
#1844=CARTESIAN_POINT('',(0.,10.85,-7.15));
#1845=CARTESIAN_POINT('',(0.,10.85,-7.15));
#1846=CARTESIAN_POINT('',(0.,10.85,7.15));
#1847=CARTESIAN_POINT('',(0.,10.85,3.575));
#1848=CARTESIAN_POINT('',(0.,10.85,7.15));
#1849=CARTESIAN_POINT('Origin',(0.,19.15,7.15));
#1850=CARTESIAN_POINT('',(3.,19.15,7.15));
#1851=CARTESIAN_POINT('',(3.,9.575,7.15));
#1852=CARTESIAN_POINT('',(0.,19.15,7.15));
#1853=CARTESIAN_POINT('',(0.,9.575,7.15));
#1854=CARTESIAN_POINT('',(0.,19.15,7.15));
#1855=CARTESIAN_POINT('Origin',(0.,19.15,-7.15));
#1856=CARTESIAN_POINT('',(3.,19.15,-7.15));
#1857=CARTESIAN_POINT('',(3.,19.15,-3.575));
#1858=CARTESIAN_POINT('',(0.,19.15,-7.15));
#1859=CARTESIAN_POINT('',(0.,19.15,-3.575));
#1860=CARTESIAN_POINT('',(0.,19.15,-7.15));
#1861=CARTESIAN_POINT('Origin',(0.,10.85,-7.15));
#1862=CARTESIAN_POINT('',(3.,5.425,-7.15));
#1863=CARTESIAN_POINT('',(0.,5.425,-7.15));
#1864=CARTESIAN_POINT('Origin',(78.,21.,-90.));
#1865=CARTESIAN_POINT('',(74.35,21.,-90.));
#1866=CARTESIAN_POINT('Origin',(78.,21.,-90.));
#1867=CARTESIAN_POINT('',(74.35,21.,-87.));
#1868=CARTESIAN_POINT('',(74.35,21.,-90.));
#1869=CARTESIAN_POINT('Origin',(78.,21.,-87.));
#1870=CARTESIAN_POINT('Origin',(55.,21.,-90.));
#1871=CARTESIAN_POINT('',(49.6,21.,-90.));
#1872=CARTESIAN_POINT('Origin',(55.,21.,-90.));
#1873=CARTESIAN_POINT('',(49.6,21.,-87.));
#1874=CARTESIAN_POINT('',(49.6,21.,-90.));
#1875=CARTESIAN_POINT('Origin',(55.,21.,-87.));
#1876=CARTESIAN_POINT('Origin',(30.,21.,-90.));
#1877=CARTESIAN_POINT('',(24.6,21.,-90.));
#1878=CARTESIAN_POINT('Origin',(30.,21.,-90.));
#1879=CARTESIAN_POINT('',(24.6,21.,-87.));
#1880=CARTESIAN_POINT('',(24.6,21.,-90.));
#1881=CARTESIAN_POINT('Origin',(30.,21.,-87.));
#1882=CARTESIAN_POINT('Origin',(50.,21.,87.));
#1883=CARTESIAN_POINT('',(97.,41.64,87.));
#1884=CARTESIAN_POINT('',(3.,30.36,87.));
#1885=CARTESIAN_POINT('',(24.1127760252366,32.8935331230284,87.));
#1886=CARTESIAN_POINT('',(97.,3.,87.));
#1887=CARTESIAN_POINT('',(97.,31.5,87.));
#1888=CARTESIAN_POINT('',(3.,3.,87.));
#1889=CARTESIAN_POINT('',(75.,3.,87.));
#1890=CARTESIAN_POINT('',(3.,10.5,87.));
#1891=CARTESIAN_POINT('Origin',(3.,0.,0.));
#1892=CARTESIAN_POINT('',(3.,30.36,-87.));
#1893=CARTESIAN_POINT('',(3.,30.36,0.));
#1894=CARTESIAN_POINT('',(3.,3.,-87.));
#1895=CARTESIAN_POINT('',(3.00000000000001,3.,0.));
#1896=CARTESIAN_POINT('',(3.,10.5,-87.));
#1897=CARTESIAN_POINT('Origin',(100.,3.,0.));
#1898=CARTESIAN_POINT('',(97.,3.,-87.));
#1899=CARTESIAN_POINT('',(97.,3.,0.));
#1900=CARTESIAN_POINT('',(75.,3.,-87.));
#1901=CARTESIAN_POINT('Origin',(97.,42.,0.));
#1902=CARTESIAN_POINT('',(97.,41.64,-87.));
#1903=CARTESIAN_POINT('',(97.,41.64,0.));
#1904=CARTESIAN_POINT('',(97.,31.5,-87.));
#1905=CARTESIAN_POINT('Origin',(50.,21.,-87.));
#1906=CARTESIAN_POINT('',(24.1127760252366,32.8935331230284,-87.));
#1907=CARTESIAN_POINT('Origin',(50.,21.,90.));
#1908=CARTESIAN_POINT('',(100.,42.,90.));
#1909=CARTESIAN_POINT('',(0.,30.,90.));
#1910=CARTESIAN_POINT('',(100.,42.,90.));
#1911=CARTESIAN_POINT('',(0.,0.,90.));
#1912=CARTESIAN_POINT('',(0.,30.,90.));
#1913=CARTESIAN_POINT('',(100.,0.,90.));
#1914=CARTESIAN_POINT('',(0.,0.,90.));
#1915=CARTESIAN_POINT('',(100.,0.,90.));
#1916=CARTESIAN_POINT('Origin',(0.,0.,0.));
#1917=CARTESIAN_POINT('',(0.,30.,-90.));
#1918=CARTESIAN_POINT('',(0.,30.,0.));
#1919=CARTESIAN_POINT('',(0.,0.,-90.));
#1920=CARTESIAN_POINT('',(0.,30.,-90.));
#1921=CARTESIAN_POINT('',(0.,0.,0.));
#1922=CARTESIAN_POINT('Origin',(100.,0.,0.));
#1923=CARTESIAN_POINT('',(100.,0.,-90.));
#1924=CARTESIAN_POINT('',(0.,0.,-90.));
#1925=CARTESIAN_POINT('',(100.,0.,0.));
#1926=CARTESIAN_POINT('Origin',(100.,42.,0.));
#1927=CARTESIAN_POINT('',(100.,42.,-90.));
#1928=CARTESIAN_POINT('',(100.,0.,-90.));
#1929=CARTESIAN_POINT('',(100.,42.,0.));
#1930=CARTESIAN_POINT('Origin',(1.77635683940025E-14,30.,0.));
#1931=CARTESIAN_POINT('',(100.,42.,-90.));
#1932=CARTESIAN_POINT('Origin',(50.,21.,-90.));
#1933=UNCERTAINTY_MEASURE_WITH_UNIT(LENGTH_MEASURE(0.01),#1937,
'DISTANCE_ACCURACY_VALUE',
'Maximum model space distance between geometric entities at asserted c
onnectivities');
#1934=UNCERTAINTY_MEASURE_WITH_UNIT(LENGTH_MEASURE(0.01),#1937,
'DISTANCE_ACCURACY_VALUE',
'Maximum model space distance between geometric entities at asserted c
onnectivities');
#1935=(
GEOMETRIC_REPRESENTATION_CONTEXT(3)
GLOBAL_UNCERTAINTY_ASSIGNED_CONTEXT((#1933))
GLOBAL_UNIT_ASSIGNED_CONTEXT((#1937,#1939,#1940))
REPRESENTATION_CONTEXT('','3D')
);
#1936=(
GEOMETRIC_REPRESENTATION_CONTEXT(3)
GLOBAL_UNCERTAINTY_ASSIGNED_CONTEXT((#1934))
GLOBAL_UNIT_ASSIGNED_CONTEXT((#1937,#1939,#1940))
REPRESENTATION_CONTEXT('','3D')
);
#1937=(
LENGTH_UNIT()
NAMED_UNIT(*)
SI_UNIT(.MILLI.,.METRE.)
);
#1938=(
LENGTH_UNIT()
NAMED_UNIT(*)
SI_UNIT($,.METRE.)
);
#1939=(
NAMED_UNIT(*)
PLANE_ANGLE_UNIT()
SI_UNIT($,.RADIAN.)
);
#1940=(
NAMED_UNIT(*)
SI_UNIT($,.STERADIAN.)
SOLID_ANGLE_UNIT()
);
#1941=SHAPE_DEFINITION_REPRESENTATION(#1942,#1943);
#1942=PRODUCT_DEFINITION_SHAPE('',$,#1945);
#1943=SHAPE_REPRESENTATION('',(#1133),#1935);
#1944=PRODUCT_DEFINITION_CONTEXT('part definition',#1949,'design');
#1945=PRODUCT_DEFINITION('01_PETG_Body','01_PETG_Body',#1946,#1944);
#1946=PRODUCT_DEFINITION_FORMATION('',$,#1951);
#1947=PRODUCT_RELATED_PRODUCT_CATEGORY('01_PETG_Body','01_PETG_Body',(#1951));
#1948=APPLICATION_PROTOCOL_DEFINITION('international standard',
'automotive_design',2009,#1949);
#1949=APPLICATION_CONTEXT(
'Core Data for Automotive Mechanical Design Process');
#1950=PRODUCT_CONTEXT('part definition',#1949,'mechanical');
#1951=PRODUCT('01_PETG_Body','01_PETG_Body',$,(#1950));
#1952=PRESENTATION_STYLE_ASSIGNMENT((#1953));
#1953=SURFACE_STYLE_USAGE(.BOTH.,#1954);
#1954=SURFACE_SIDE_STYLE('',(#1955));
#1955=SURFACE_STYLE_FILL_AREA(#1956);
#1956=FILL_AREA_STYLE('Steel - Satin',(#1957));
#1957=FILL_AREA_STYLE_COLOUR('Steel - Satin',#1958);
#1958=COLOUR_RGB('Steel - Satin',0.627450980392157,0.627450980392157,0.627450980392157);
ENDSEC;
END-ISO-10303-21;
